<?xml version="1.0" encoding="UTF-8" standalone="no"?>
<!-- Created with Inkscape (http://www.inkscape.org/) -->

<svg
   xmlns:dc="http://purl.org/dc/elements/1.1/"
   xmlns:cc="http://creativecommons.org/ns#"
   xmlns:rdf="http://www.w3.org/1999/02/22-rdf-syntax-ns#"
   xmlns:svg="http://www.w3.org/2000/svg"
   xmlns="http://www.w3.org/2000/svg"
   xmlns:sodipodi="http://sodipodi.sourceforge.net/DTD/sodipodi-0.dtd"
   xmlns:inkscape="http://www.inkscape.org/namespaces/inkscape"
   width="210mm"
   height="297mm"
   viewBox="0 0 210 297"
   version="1.1"
   id="svg8"
   sodipodi:docname="hepatitis_b.svg"
   inkscape:export-filename="C:\Users\xmichaelx\bigpharmainfographics\hepatitis_b.png"
   inkscape:export-xdpi="600"
   inkscape:export-ydpi="600"
   inkscape:version="0.92.2 (5c3e80d, 2017-08-06)">
  <defs
     id="defs2" />
  <sodipodi:namedview
     id="base"
     pagecolor="#ffffff"
     bordercolor="#666666"
     borderopacity="1.0"
     inkscape:pageopacity="0"
     inkscape:pageshadow="2"
     inkscape:zoom="2.8284271"
     inkscape:cx="196.89833"
     inkscape:cy="751.93136"
     inkscape:document-units="mm"
     inkscape:current-layer="layer1"
     showgrid="false"
     inkscape:window-width="1920"
     inkscape:window-height="1001"
     inkscape:window-x="-9"
     inkscape:window-y="-9"
     inkscape:window-maximized="1"
     inkscape:pagecheckerboard="true"
     inkscape:snap-midpoints="true">
    <sodipodi:guide
       position="0,0"
       orientation="0,793.70079"
       id="guide3699"
       inkscape:locked="false" />
    <sodipodi:guide
       position="210,0"
       orientation="-1122.5197,0"
       id="guide3701"
       inkscape:locked="false" />
    <sodipodi:guide
       position="210,297"
       orientation="0,-793.70079"
       id="guide3703"
       inkscape:locked="false" />
    <sodipodi:guide
       position="0,297"
       orientation="1122.5197,0"
       id="guide3705"
       inkscape:locked="false" />
  </sodipodi:namedview>
  <metadata
     id="metadata5">
    <rdf:RDF>
      <cc:Work
         rdf:about="">
        <dc:format>image/svg+xml</dc:format>
        <dc:type
           rdf:resource="http://purl.org/dc/dcmitype/StillImage" />
        <dc:title />
      </cc:Work>
    </rdf:RDF>
  </metadata>
  <g
     inkscape:label="Layer 1"
     inkscape:groupmode="layer"
     id="layer1">
    <rect
       id="rect3709"
       width="210"
       height="297"
       x="0"
       y="3.8964413e-007"
       style="fill:#27978b;fill-opacity:1;stroke-width:0.26458332"
       inkscape:export-xdpi="600"
       inkscape:export-ydpi="600" />
    <text
       xml:space="preserve"
       style="font-style:normal;font-weight:normal;font-size:10.58333302px;line-height:1.25;font-family:sans-serif;letter-spacing:0px;word-spacing:0px;fill:#ffffff;fill-opacity:1;stroke:none;stroke-width:0.26458332;"
       x="32.179245"
       y="14.121933"
       id="text4520"><tspan
         sodipodi:role="line"
         id="tspan4518"
         x="32.179245"
         y="14.121933"
         style="stroke-width:0.26458332;fill:#ffffff;fill-opacity:1;-inkscape-font-specification:'Consolas Bold';font-family:Consolas;font-weight:bold;font-style:normal;font-stretch:normal;font-variant:normal">Szczepionka przeciw WZW B </tspan></text>
    <path
       style="fill:none;stroke:#ffffff;stroke-width:0.91000002;stroke-linecap:butt;stroke-linejoin:miter;stroke-miterlimit:4;stroke-dasharray:5.46000012, 5.46000012000000012;stroke-opacity:1;stroke-dashoffset:0"
       d="M 105,25.44406 V 271.55594"
       id="path4528"
       inkscape:connector-curvature="0" />
    <path
       style="fill:none;stroke:#ffffff;stroke-width:1.00000003;stroke-linecap:butt;stroke-linejoin:miter;stroke-opacity:1;stroke-miterlimit:4;stroke-dasharray:6.00000017, 6.00000016999999986;stroke-dashoffset:0"
       d="M 0,148.5 H 210"
       id="path4530"
       inkscape:connector-curvature="0" />
    <text
       xml:space="preserve"
       style="font-style:normal;font-variant:normal;font-weight:normal;font-stretch:normal;font-size:10.58333302px;line-height:0.25;font-family:Consolas;-inkscape-font-specification:Consolas;text-align:center;letter-spacing:0px;word-spacing:0px;text-anchor:middle;fill:#000000;fill-opacity:1;stroke:none;stroke-width:0.26458332"
       x="49.19804"
       y="24.692444"
       id="text4534"><tspan
         sodipodi:role="line"
         id="tspan4532"
         x="49.19804"
         y="24.692444"
         style="font-style:normal;font-variant:normal;font-weight:bold;font-stretch:normal;font-size:4.23333311px;line-height:0.25;font-family:Consolas;-inkscape-font-specification:'Consolas Bold';text-align:center;text-anchor:middle;fill:#ffffff;fill-opacity:1;stroke-width:0.26458332">Co jest przyczyną wirusowego</tspan><tspan
         sodipodi:role="line"
         x="49.19804"
         y="28.085518"
         style="font-style:normal;font-variant:normal;font-weight:bold;font-stretch:normal;font-size:4.23333311px;line-height:0.25;font-family:Consolas;-inkscape-font-specification:'Consolas Bold';text-align:center;text-anchor:middle;fill:#ffffff;fill-opacity:1;stroke-width:0.26458332"
         id="tspan907">zapalenia wątroby typu B?</tspan></text>
    <text
       xml:space="preserve"
       style="font-style:normal;font-variant:normal;font-weight:normal;font-stretch:normal;font-size:10.58333302px;line-height:1.25;font-family:Consolas;-inkscape-font-specification:Consolas;letter-spacing:0px;word-spacing:0px;fill:#000000;fill-opacity:1;stroke:none;stroke-width:0.26458332"
       x="111.50239"
       y="26.020754"
       id="text4534-9"><tspan
         sodipodi:role="line"
         id="tspan4532-8"
         x="111.50239"
         y="26.020754"
         style="font-style:normal;font-variant:normal;font-weight:bold;font-stretch:normal;font-size:4.23333311px;font-family:Consolas;-inkscape-font-specification:'Consolas Bold';fill:#ffffff;fill-opacity:1;stroke-width:0.26458332">Infekcja hepatitis i reakcja organizmu</tspan></text>
    <text
       xml:space="preserve"
       style="font-style:normal;font-variant:normal;font-weight:normal;font-stretch:normal;font-size:10.58333302px;line-height:1.25;font-family:Consolas;-inkscape-font-specification:Consolas;letter-spacing:0px;word-spacing:0px;fill:#000000;fill-opacity:1;stroke:none;stroke-width:0.26458332"
       x="3.4652886"
       y="157.86737"
       id="text4534-9-7"><tspan
         sodipodi:role="line"
         id="tspan4532-8-4"
         x="3.4652886"
         y="157.86737"
         style="font-size:4.23333333px;fill:#ffffff;fill-opacity:1;stroke-width:0.26458332;-inkscape-font-specification:'Consolas Bold';font-family:Consolas;font-weight:bold;font-style:normal;font-stretch:normal;font-variant:normal">Jak przemysłowo produkuje się szczepionkę?</tspan></text>
    <text
       xml:space="preserve"
       style="font-style:normal;font-variant:normal;font-weight:normal;font-stretch:normal;font-size:10.58333302px;line-height:1.25;font-family:Consolas;-inkscape-font-specification:Consolas;letter-spacing:0px;word-spacing:0px;fill:#000000;fill-opacity:1;stroke:none;stroke-width:0.26458332"
       x="107.81017"
       y="158.84862"
       id="text4534-9-7-8"><tspan
         sodipodi:role="line"
         id="tspan4532-8-4-3"
         x="107.81017"
         y="158.84862"
         style="font-style:normal;font-variant:normal;font-weight:bold;font-stretch:normal;font-size:4.23333311px;font-family:Consolas;-inkscape-font-specification:'Consolas Bold';fill:#ffffff;fill-opacity:1;stroke-width:0.26458332">Co oprócz HBSAg znajduje się w szczepionce?</tspan></text>
    <text
       xml:space="preserve"
       style="font-style:normal;font-variant:normal;font-weight:normal;font-stretch:normal;font-size:10.58333302px;line-height:1.25;font-family:Consolas;-inkscape-font-specification:Consolas;letter-spacing:0px;word-spacing:0px;fill:#000000;fill-opacity:1;stroke:none;stroke-width:0.26458332"
       x="27.755413"
       y="290.66034"
       id="text4534-9-7-88"><tspan
         sodipodi:role="line"
         id="tspan4532-8-4-6"
         x="27.755413"
         y="290.66034"
         style="font-style:normal;font-variant:normal;font-weight:bold;font-stretch:normal;font-size:4.23333311px;font-family:Consolas;-inkscape-font-specification:'Consolas Bold';fill:#ffffff;fill-opacity:1;stroke-width:0.26458332">Nazwy szczepionek przeciw WZW B: Enginrix B, Euvax B, Hepavax-Gene TF </tspan></text>
    <text
       xml:space="preserve"
       style="font-style:normal;font-variant:normal;font-weight:normal;font-stretch:normal;font-size:3.52777778px;line-height:1.25;font-family:Consolas;-inkscape-font-specification:Consolas;letter-spacing:0px;word-spacing:0px;fill:#ffffff;fill-opacity:1;stroke:none;stroke-width:0.26458332;"
       x="8.7312498"
       y="42.470833"
       id="text4614"><tspan
         sodipodi:role="line"
         id="tspan4612"
         x="8.7312498"
         y="51.653736"
         style="stroke-width:0.26458332;font-size:3.52777778px;fill:#ffffff;fill-opacity:1;" /></text>
    <text
       xml:space="preserve"
       style="font-style:normal;font-variant:normal;font-weight:normal;font-stretch:normal;font-size:10.58333302px;line-height:0.25;font-family:Consolas;-inkscape-font-specification:Consolas;letter-spacing:0px;word-spacing:0px;fill:#000000;fill-opacity:1;stroke:none;stroke-width:0.26458332"
       x="35.013016"
       y="99.356209"
       id="text4618"><tspan
         sodipodi:role="line"
         x="35.595924"
         y="99.356209"
         style="font-style:normal;font-variant:normal;font-weight:bold;font-stretch:normal;font-size:2.11666656px;line-height:0.25;font-family:Consolas;-inkscape-font-specification:'Consolas Bold';text-align:center;text-anchor:middle;fill:#ffffff;fill-opacity:1;stroke-width:0.26458332"
         id="tspan4668">HBV jest niewielki - ma rozmiar 42 nm, </tspan><tspan
         sodipodi:role="line"
         x="35.595924"
         y="102.99837"
         style="font-style:normal;font-variant:normal;font-weight:bold;font-stretch:normal;font-size:2.11666656px;line-height:0.25;font-family:Consolas;-inkscape-font-specification:'Consolas Bold';text-align:center;text-anchor:middle;fill:#ffffff;fill-opacity:1;stroke-width:0.26458332"
         id="tspan913">dla porównania ludzki plemnik </tspan><tspan
         sodipodi:role="line"
         x="35.013016"
         y="106.64052"
         style="font-style:normal;font-variant:normal;font-weight:bold;font-stretch:normal;font-size:2.11666656px;line-height:0.25;font-family:Consolas;-inkscape-font-specification:'Consolas Bold';text-align:center;text-anchor:middle;fill:#ffffff;fill-opacity:1;stroke-width:0.26458332"
         id="tspan5694">jest ponad 1000x większy</tspan><tspan
         sodipodi:role="line"
         x="35.013016"
         y="110.28268"
         style="font-style:normal;font-variant:normal;font-weight:bold;font-stretch:normal;font-size:2.11666656px;line-height:0.25;font-family:Consolas;-inkscape-font-specification:'Consolas Bold';text-align:center;text-anchor:middle;fill:#ffffff;fill-opacity:1;stroke-width:0.26458332"
         id="tspan915" /><tspan
         sodipodi:role="line"
         x="35.013016"
         y="112.9285"
         style="font-style:normal;font-variant:normal;font-weight:bold;font-stretch:normal;font-size:2.11666656px;line-height:0.25;font-family:Consolas;-inkscape-font-specification:'Consolas Bold';text-align:center;text-anchor:middle;fill:#ffffff;fill-opacity:1;stroke-width:0.26458332"
         id="tspan4674" /><tspan
         sodipodi:role="line"
         x="35.013016"
         y="115.57434"
         style="font-style:normal;font-variant:normal;font-weight:bold;font-stretch:normal;font-size:2.11666656px;line-height:0.25;font-family:Consolas;-inkscape-font-specification:'Consolas Bold';text-align:center;text-anchor:middle;fill:#ffffff;fill-opacity:1;stroke-width:0.26458332"
         id="tspan5239" /><tspan
         sodipodi:role="line"
         x="35.013016"
         y="118.22018"
         style="font-style:normal;font-variant:normal;font-weight:bold;font-stretch:normal;font-size:2.11666656px;line-height:0.25;font-family:Consolas;-inkscape-font-specification:'Consolas Bold';text-align:center;text-anchor:middle;fill:#ffffff;fill-opacity:1;stroke-width:0.26458332"
         id="tspan4632" /></text>
    <text
       xml:space="preserve"
       style="font-style:normal;font-variant:normal;font-weight:normal;font-stretch:normal;font-size:10.58333302px;line-height:1.25;font-family:Consolas;-inkscape-font-specification:Consolas;letter-spacing:0px;word-spacing:0px;fill:#000000;fill-opacity:1;stroke:none;stroke-width:0.26458332"
       x="119.19479"
       y="50.408333"
       id="text4664"><tspan
         sodipodi:role="line"
         id="tspan4662"
         x="119.19479"
         y="59.591236"
         style="stroke-width:0.26458332" /></text>
    <text
       xml:space="preserve"
       style="font-style:normal;font-variant:normal;font-weight:normal;font-stretch:normal;font-size:10.58333302px;line-height:0.25;font-family:Consolas;-inkscape-font-specification:Consolas;letter-spacing:0px;word-spacing:0px;fill:#000000;fill-opacity:1;stroke:none;stroke-width:0.26458332"
       x="107.44341"
       y="30.710321"
       id="text4618-2"><tspan
         sodipodi:role="line"
         x="107.44341"
         y="30.710321"
         style="font-size:2.11666656px;line-height:0.25;fill:#ffffff;fill-opacity:1;stroke-width:0.26458332"
         id="tspan4632-2">Wirusy nie potrafią samodzielnie się rozmnażać. By stworzyć swoje kopie potrzebują</tspan><tspan
         sodipodi:role="line"
         x="107.44341"
         y="34.352478"
         style="font-size:2.11666656px;line-height:0.25;fill:#ffffff;fill-opacity:1;stroke-width:0.26458332"
         id="tspan4893">przejąć kontrolę nad komórką i jej infrastrukturą produkcyjną.</tspan><tspan
         sodipodi:role="line"
         x="107.44341"
         y="37.994633"
         style="font-size:2.11666656px;line-height:0.25;fill:#ffffff;fill-opacity:1;stroke-width:0.26458332"
         id="tspan4897">&lt;uproszczony schemat pokazujący jak hepatitis B przejmuje kontrolę nad komórką</tspan><tspan
         sodipodi:role="line"
         x="107.44341"
         y="41.636787"
         style="font-size:2.11666656px;line-height:0.25;fill:#ffffff;fill-opacity:1;stroke-width:0.26458332"
         id="tspan4899">tutaj np. uproszczona wersja: </tspan><tspan
         sodipodi:role="line"
         x="107.44341"
         y="45.278942"
         style="font-size:2.11666656px;line-height:0.25;fill:#ffffff;fill-opacity:1;stroke-width:0.26458332"
         id="tspan4905">https://images.nature.com/full/nature-assets/nri/journal/v5/n3/images/nri1573-f2.jpg&gt;</tspan><tspan
         sodipodi:role="line"
         x="107.44341"
         y="48.921097"
         style="font-size:2.11666656px;line-height:0.25;fill:#ffffff;fill-opacity:1;stroke-width:0.26458332"
         id="tspan4907" /><tspan
         sodipodi:role="line"
         x="107.44341"
         y="51.566929"
         style="font-size:2.11666656px;line-height:0.25;fill:#ffffff;fill-opacity:1;stroke-width:0.26458332"
         id="tspan4909">&lt;opis jak organizm reaguje na HBsAg i zaczyna przetwarzać przeciwciała&gt;</tspan><tspan
         sodipodi:role="line"
         x="107.44341"
         y="55.209084"
         style="font-size:2.11666656px;line-height:0.25;fill:#ffffff;fill-opacity:1;stroke-width:0.26458332"
         id="tspan4911" /><tspan
         sodipodi:role="line"
         x="107.44341"
         y="57.854916"
         style="font-size:2.11666656px;line-height:0.25;fill:#ffffff;fill-opacity:1;stroke-width:0.26458332"
         id="tspan4913">&lt;opis jakie jest ryzyko związane z WZW B, ile procent przypadków </tspan><tspan
         sodipodi:role="line"
         x="107.44341"
         y="61.49707"
         style="font-size:2.11666656px;line-height:0.25;fill:#ffffff;fill-opacity:1;stroke-width:0.26458332"
         id="tspan4917">kończy sie powikłaniami etc&gt;</tspan><tspan
         sodipodi:role="line"
         x="107.44341"
         y="65.139229"
         style="font-size:2.11666656px;line-height:0.25;fill:#ffffff;fill-opacity:1;stroke-width:0.26458332"
         id="tspan4915" /></text>
    <text
       xml:space="preserve"
       style="font-style:normal;font-variant:normal;font-weight:normal;font-stretch:normal;font-size:10.58333302px;line-height:1.25;font-family:Consolas;-inkscape-font-specification:Consolas;letter-spacing:0px;word-spacing:0px;fill:#000000;fill-opacity:1;stroke:none;stroke-width:0.26458332"
       x="125.2802"
       y="55.964581"
       id="text4903"><tspan
         sodipodi:role="line"
         id="tspan4901"
         x="125.2802"
         y="65.147484"
         style="stroke-width:0.26458332" /></text>
    <text
       xml:space="preserve"
       style="font-style:normal;font-variant:normal;font-weight:normal;font-stretch:normal;font-size:10.58333302px;line-height:0.25;font-family:Consolas;-inkscape-font-specification:Consolas;letter-spacing:0px;word-spacing:0px;fill:#000000;fill-opacity:1;stroke:none;stroke-width:0.26458332"
       x="2.9879334"
       y="166.57127"
       id="text4618-2-6"><tspan
         sodipodi:role="line"
         x="2.9879334"
         y="166.57127"
         style="font-size:2.11666656px;line-height:0.25;fill:#ffffff;fill-opacity:1;stroke-width:0.26458332"
         id="tspan4915-5">&lt;wykorzystujemy drożdże do produkcji szczepionki, </tspan><tspan
         sodipodi:role="line"
         x="2.9879334"
         y="170.21342"
         style="font-size:2.11666656px;line-height:0.25;fill:#ffffff;fill-opacity:1;stroke-width:0.26458332"
         id="tspan5116">wykorzystujemy fragment kodu genetycznego wirusa kodujący HBsAg, </tspan><tspan
         sodipodi:role="line"
         x="2.9879334"
         y="173.85559"
         style="font-size:2.11666656px;line-height:0.25;fill:#ffffff;fill-opacity:1;stroke-width:0.26458332"
         id="tspan5118">który wklejamy do drożdży zmieniając je w żywą fabrykę tego antygenu&gt;</tspan><tspan
         sodipodi:role="line"
         x="2.9879334"
         y="177.49774"
         style="font-size:2.11666656px;line-height:0.25;fill:#ffffff;fill-opacity:1;stroke-width:0.26458332"
         id="tspan5126">&lt;do tego jakiś ładny obrazek pokazujący proces, np. na podstawie:</tspan><tspan
         sodipodi:role="line"
         x="2.9879334"
         y="181.13989"
         style="font-size:2.11666656px;line-height:0.25;fill:#ffffff;fill-opacity:1;stroke-width:0.26458332"
         id="tspan5148">https://www.eduhk.hk/biotech/eng/classrm/explain/health4.jpg&gt;</tspan><tspan
         sodipodi:role="line"
         x="2.9879334"
         y="184.78204"
         style="font-size:2.11666656px;line-height:0.25;fill:#ffffff;fill-opacity:1;stroke-width:0.26458332"
         id="tspan5163">&lt;proces namnażania drożdży, do tego można do tego dorzucić jakiś obrazek</tspan><tspan
         sodipodi:role="line"
         x="2.9879334"
         y="188.42421"
         style="font-size:2.11666656px;line-height:0.25;fill:#ffffff;fill-opacity:1;stroke-width:0.26458332"
         id="tspan5165">z winiarzem/bimbrownikiem, Polaków nie trzeba uczyć namnażania drożdży&gt;</tspan><tspan
         sodipodi:role="line"
         x="2.9879334"
         y="192.06636"
         style="font-size:2.11666656px;line-height:0.25;fill:#ffffff;fill-opacity:1;stroke-width:0.26458332"
         id="tspan5167" /><tspan
         sodipodi:role="line"
         x="2.9879334"
         y="194.71219"
         style="font-size:2.11666656px;line-height:0.25;fill:#ffffff;fill-opacity:1;stroke-width:0.26458332"
         id="tspan5169">&lt;informacja że po wyprodukowaniu wystarczającej ilości antygenu trzeba go odfiltrować</tspan><tspan
         sodipodi:role="line"
         x="2.9879334"
         y="198.35434"
         style="font-size:2.11666656px;line-height:0.25;fill:#ffffff;fill-opacity:1;stroke-width:0.26458332"
         id="tspan5171">od reszty i oczyścić by nadawał się do szczepionek&gt;</tspan></text>
    <text
       xml:space="preserve"
       style="font-style:normal;font-variant:normal;font-weight:normal;font-stretch:normal;font-size:10.58333302px;line-height:0.25;font-family:Consolas;-inkscape-font-specification:Consolas;letter-spacing:0px;word-spacing:0px;fill:#000000;fill-opacity:1;stroke:none;stroke-width:0.26458332"
       x="108.7803"
       y="164.51237"
       id="text4618-2-6-7"><tspan
         sodipodi:role="line"
         x="108.7803"
         y="164.51237"
         style="font-size:2.11666656px;line-height:0.25;fill:#ffffff;fill-opacity:1;stroke-width:0.26458332"
         id="tspan5171-2">Wylistowanie tego co i ile znajduje się w przeciętnej szczepionce oraz</tspan><tspan
         sodipodi:role="line"
         x="108.7803"
         y="168.15453"
         style="font-size:2.11666656px;line-height:0.25;fill:#ffffff;fill-opacity:1;stroke-width:0.26458332"
         id="tspan5302">w jakim celu jest podawane, dodatko do każdej oprócz antygenu substancji</tspan><tspan
         sodipodi:role="line"
         x="108.7803"
         y="171.79669"
         style="font-size:2.11666656px;line-height:0.25;fill:#ffffff;fill-opacity:1;stroke-width:0.26458332"
         id="tspan5304">dodać info jaka dawka jest trująca, jak organizm się pozbywa tej substancji</tspan><tspan
         sodipodi:role="line"
         x="108.7803"
         y="175.43884"
         style="font-size:2.11666656px;line-height:0.25;fill:#ffffff;fill-opacity:1;stroke-width:0.26458332"
         id="tspan5306">oraz podanie dla zachowania proporcji ile jej przyjmujemy z innych źródeł</tspan><tspan
         sodipodi:role="line"
         x="108.7803"
         y="179.08099"
         style="font-size:2.11666656px;line-height:0.25;fill:#ffffff;fill-opacity:1;stroke-width:0.26458332"
         id="tspan5308">(np. z jedzeniem)</tspan><tspan
         sodipodi:role="line"
         x="108.7803"
         y="182.72314"
         style="font-size:2.11666656px;line-height:0.25;fill:#ffffff;fill-opacity:1;stroke-width:0.26458332"
         id="tspan5272" /><tspan
         sodipodi:role="line"
         x="108.7803"
         y="185.36899"
         style="font-size:2.11666656px;line-height:0.25;fill:#ffffff;fill-opacity:1;stroke-width:0.26458332"
         id="tspan5274" /><tspan
         sodipodi:role="line"
         x="108.7803"
         y="188.01482"
         style="font-size:2.11666656px;line-height:0.25;fill:#ffffff;fill-opacity:1;stroke-width:0.26458332"
         id="tspan5276">antygen HBSAg</tspan><tspan
         sodipodi:role="line"
         x="108.7803"
         y="191.65697"
         style="font-size:2.11666656px;line-height:0.25;fill:#ffffff;fill-opacity:1;stroke-width:0.26458332"
         id="tspan5278" /><tspan
         sodipodi:role="line"
         x="108.7803"
         y="194.30281"
         style="font-size:2.11666656px;line-height:0.25;fill:#ffffff;fill-opacity:1;stroke-width:0.26458332"
         id="tspan5280" /><tspan
         sodipodi:role="line"
         x="108.7803"
         y="196.94864"
         style="font-size:2.11666656px;line-height:0.25;fill:#ffffff;fill-opacity:1;stroke-width:0.26458332"
         id="tspan5284">wodorotlenek glinu</tspan><tspan
         sodipodi:role="line"
         x="108.7803"
         y="200.59079"
         style="font-size:2.11666656px;line-height:0.25;fill:#ffffff;fill-opacity:1;stroke-width:0.26458332"
         id="tspan5286">oraz substacje pomocnicze których jest mniej:</tspan><tspan
         sodipodi:role="line"
         x="108.7803"
         y="204.23294"
         style="font-size:2.11666656px;line-height:0.25;fill:#ffffff;fill-opacity:1;stroke-width:0.26458332"
         id="tspan5288">- potasu diwodorofosforan</tspan><tspan
         sodipodi:role="line"
         x="108.7803"
         y="207.87511"
         style="font-size:2.11666656px;line-height:0.25;fill:#ffffff;fill-opacity:1;stroke-width:0.26458332"
         id="tspan5290">- disodu wodorofosforan</tspan><tspan
         sodipodi:role="line"
         x="108.7803"
         y="211.51726"
         style="font-size:2.11666656px;line-height:0.25;fill:#ffffff;fill-opacity:1;stroke-width:0.26458332"
         id="tspan5298">- chlorek sodu </tspan></text>
    <path
       inkscape:connector-curvature="0"
       d="m 98.754879,60.163065 c -0.04804,-0.03363 -0.08738,-0.08355 -0.08738,-0.110862 0,-0.0273 -0.08832,-0.163424 -0.196265,-0.302477 -0.113097,-0.145698 -0.20613,-0.311131 -0.219548,-0.390433 -0.04363,-0.257554 -0.101159,-0.392731 -0.235929,-0.554042 -0.07406,-0.08861 -0.137563,-0.199235 -0.14119,-0.245848 -0.004,-0.0466 -0.0092,-0.535907 -0.01249,-1.087322 -0.0072,-1.235575 -0.09912,-1.961014 -0.420809,-3.322287 -0.111663,-0.47249 -0.1228,-0.58549 -0.147355,-1.495258 -0.01457,-0.541271 -0.03739,-1.001647 -0.0506,-1.023048 -0.03979,-0.06437 -0.180437,-1.055409 -0.248026,-1.747583 -0.03483,-0.356799 -0.09733,-0.82603 -0.138868,-1.042735 -0.08657,-0.451698 -0.292974,-1.089436 -0.324206,-1.001744 -0.07406,0.207939 -0.110406,1.033176 -0.08536,1.93778 0.02266,0.817335 0.01673,1.046859 -0.03347,1.307711 -0.06509,0.337768 -0.05732,0.41217 0.08658,0.832403 0.104522,0.305271 0.108373,0.694303 0.02074,2.092485 -0.07494,1.19531 -0.05644,2.695076 0.04483,3.632353 0.03819,0.353148 0.05236,0.635825 0.03291,0.653671 -0.0189,0.01729 -0.205681,0.08778 -0.415069,0.15665 -0.473642,0.15577 -0.650301,0.281821 -0.839312,0.598869 -0.220181,0.369329 -0.310571,0.452986 -0.523354,0.484395 -0.100743,0.01489 -0.23833,0.06085 -0.305751,0.102224 -0.148148,0.09085 -0.468943,0.100134 -0.662697,0.01922 -0.279909,-0.116948 -0.387322,-0.615402 -0.21268,-0.986932 0.09053,-0.192591 0.192798,-0.279763 0.471213,-0.40165 0.275656,-0.120679 0.718674,-0.560503 0.865997,-0.859745 0.11915,-0.242037 0.122728,-0.26407 0.102897,-0.634352 -0.01369,-0.255576 -0.08837,-0.6854 -0.223799,-1.287887 -0.289379,-1.287439 -0.354509,-1.709241 -0.396022,-2.56467 -0.04107,-0.846983 -0.102248,-1.29318 -0.295119,-2.153365 -0.22721,-1.013312 -0.303015,-1.554456 -0.450354,-3.214762 -0.101545,-1.144271 -0.102152,-1.676407 -0.0025,-2.155566 0.04233,-0.203471 0.09552,-0.632879 0.118189,-0.954235 0.02267,-0.321355 0.07761,-0.754822 0.122073,-0.963265 0.136218,-0.638499 0.165009,-0.878111 0.142383,-1.184975 -0.0233,-0.315967 -0.266547,-1.597794 -0.338245,-1.782362 l -0.04327,-0.111391 -0.124001,0.104338 c -0.184929,0.155609 -0.752257,0.428719 -1.277611,0.615041 -0.418436,0.148396 -0.503791,0.165393 -0.845786,0.168419 -0.44515,0.004 -0.547385,-0.04548 -0.688296,-0.332868 -0.22231,-0.453371 -0.300642,-1.895395 -0.156866,-2.887755 0.0376,-0.259491 0.0787,-0.675264 0.09135,-0.923946 0.02018,-0.396895 0.0127,-0.482354 -0.06123,-0.699379 -0.103751,-0.304559 -0.225209,-1.003706 -0.260996,-1.502368 -0.03478,-0.484595 0.01152,-0.662174 0.214563,-0.822987 0.08377,-0.06637 0.170513,-0.120623 0.192773,-0.120623 0.02226,0 0.09329,-0.04443 0.157855,-0.09877 0.245047,-0.206193 0.764519,-0.294951 0.963436,-0.164617 0.11835,0.07758 0.14431,0.222999 0.1781,0.997861 0.01432,0.328281 0.03821,0.609044 0.05309,0.623928 0.01488,0.01489 0.120444,-0.0546 0.234576,-0.154465 0.291378,-0.254887 0.592125,-0.294278 0.64479,-0.08444 0.02813,0.112064 -0.01498,0.196009 -0.284872,0.55477 -0.619616,0.82362 -0.732256,1.15391 -0.736342,2.159145 -0.0023,0.566147 0.05534,1.081213 0.121002,1.081213 0.01178,0 0.143361,-0.08107 0.292409,-0.180156 0.185239,-0.123145 0.327051,-0.258715 0.448129,-0.428384 0.318603,-0.446485 0.604492,-0.652102 1.174626,-0.84482 0.623551,-0.210773 1.363666,-0.650461 1.444289,-0.858015 0.02282,-0.05861 0.03419,-0.248155 0.0253,-0.421154 -0.01433,-0.280531 -0.03763,-0.359169 -0.215104,-0.727361 -0.459271,-0.952633 -0.542128,-1.354179 -0.371883,-1.802225 0.162607,-0.427951 0.603608,-0.949959 0.802532,-0.949959 0.05068,0 0.198387,-0.06901 0.328232,-0.1534 0.299547,-0.194641 0.506909,-0.257546 0.735824,-0.223223 0.405245,0.06077 1.007724,0.614328 1.291146,1.186296 0.264343,0.533465 0.248866,0.719378 -0.129558,1.556105 -0.405989,0.89767 -0.43076,1.063128 -0.201149,1.343507 0.34302,0.418879 0.985067,0.842211 1.499037,0.988389 0.375525,0.106803 0.518013,0.180965 0.650757,0.338729 0.331385,0.393836 0.457435,0.952329 0.651365,2.885961 0.1002,0.999102 0.16008,1.448693 0.3362,2.523942 0.0294,0.179557 -0.0415,0.700196 -0.21841,1.604335 -0.17314,0.884708 -0.27414,1.474305 -0.39128,2.284019 -0.1099,0.759594 -0.25381,1.157081 -0.52957,1.462696 -0.152912,0.16946 -0.197547,0.309194 -0.27889,0.873027 -0.03275,0.227057 -0.09903,0.536675 -0.147275,0.68805 -0.07798,0.244631 -0.08756,0.356054 -0.08624,1.002584 0.0016,0.661814 0.01201,0.773421 0.117948,1.238481 0.113129,0.49642 0.116412,0.539958 0.114362,1.513704 -0.0024,1.095633 -0.05308,1.60399 -0.239892,2.399965 -0.08106,0.345454 -0.105706,0.551367 -0.105666,0.882994 4e-5,0.51634 0.06709,0.728811 0.545586,1.729281 l 0.300539,0.628396 -0.111615,0.208723 c -0.20693,0.386951 -0.296512,0.467133 -0.576275,0.515859 -0.33298,0.05797 -0.425468,0.05484 -0.529182,-0.01777 z m 0.640389,-14.614262 c 0.03123,-0.291885 -0.03955,-1.828206 -0.119957,-2.605318 -0.05524,-0.533562 -0.118381,-0.854188 -0.216674,-1.099893 l -0.04716,-0.117956 -0.03691,0.117956 c -0.06693,0.213848 -0.03539,1.043128 0.08828,2.319703 0.117124,1.209242 0.197435,1.698048 0.271485,1.652284 0.01905,-0.01177 0.04652,-0.131855 0.06093,-0.266776 z"
       style="fill:#ffffff;fill-opacity:1;stroke-width:0.03931695"
       id="path2220" />
    <path
       inkscape:connector-curvature="0"
       style="fill:#ffffff;fill-opacity:1;stroke-width:0.05730878"
       d="m 83.347113,57.606005 c -0.03365,-0.04197 -0.05541,-0.05426 -0.112423,-0.06362 -0.121604,-0.01996 -0.258426,-0.01594 -0.278439,0.0082 -0.01471,0.01773 -0.06575,0.02149 -0.291978,0.02149 -0.161335,0 -0.294732,0.0065 -0.324188,0.01591 -0.02754,0.0088 -0.185444,0.01916 -0.350923,0.02313 -0.349627,0.0084 -0.518349,-0.0125 -0.56485,-0.06993 -0.02539,-0.03132 -0.02908,-0.03172 -0.13893,-0.01495 -0.163034,0.02488 -0.663842,0.02756 -0.920763,0.0049 -0.218433,-0.01925 -0.220998,-0.01913 -0.276639,0.01214 -0.06024,0.03386 -0.06226,0.03359 -0.197755,-0.02635 -0.06179,-0.02733 -0.07113,-0.04015 -0.07141,-0.09795 -6.51e-4,-0.135445 -0.0739,-0.1646 -0.225737,-0.08985 -0.05251,0.02585 -0.133484,0.07658 -0.179942,0.112734 -0.04645,0.03615 -0.09835,0.07501 -0.115305,0.08635 -0.01696,0.01134 -0.04373,0.03145 -0.05949,0.04468 -0.01577,0.01324 -0.04733,0.02849 -0.07016,0.03391 l -0.0415,0.0098 0.008,-0.111837 c 0.0044,-0.06151 0.01247,-0.123119 0.01797,-0.136909 0.0092,-0.02316 -0.0052,-0.02507 -0.189266,-0.02507 -0.125159,0 -0.205077,-0.0058 -0.214924,-0.01568 -0.0097,-0.0097 -0.04745,-0.01267 -0.09957,-0.0077 -0.257521,0.02435 -0.309068,0.02605 -0.324398,0.01072 -0.0088,-0.0088 -0.03028,-0.01596 -0.04779,-0.01596 -0.03616,0 -0.13436,-0.105322 -0.13436,-0.144097 0,-0.03678 -0.03592,-0.05921 -0.107813,-0.06731 -0.04573,-0.0052 -0.07209,-9.4e-4 -0.08954,0.01428 -0.01359,0.01187 -0.04952,0.02955 -0.07983,0.03929 -0.03031,0.0097 -0.07222,0.02663 -0.09313,0.03754 -0.02091,0.01091 -0.04575,0.01987 -0.05521,0.01992 -0.0095,2.8e-5 -0.02235,0.0085 -0.02866,0.01876 -0.0244,0.03977 -0.144673,0.112634 -0.178115,0.107903 -0.02874,-0.0041 -0.03459,-0.0141 -0.03833,-0.06569 -0.0038,-0.05271 -5.85e-4,-0.06089 0.02411,-0.06089 0.01568,0 0.03232,-0.01198 0.03696,-0.02661 0.01114,-0.0351 0.126003,-0.150862 0.200657,-0.202226 0.03262,-0.02244 0.106515,-0.05514 0.164205,-0.07267 0.096,-0.02916 0.122055,-0.031 0.307317,-0.02169 0.111334,0.0056 0.204635,0.01631 0.207336,0.02381 0.0027,0.0075 0.02647,0.0096 0.05283,0.0046 0.03156,-0.0059 0.07678,10e-4 0.132457,0.02026 0.04649,0.01609 0.129103,0.03667 0.183571,0.04573 0.05447,0.0091 0.12904,0.02502 0.165716,0.03547 0.03668,0.01044 0.09216,0.01557 0.123298,0.0114 0.03114,-0.0042 0.06883,-0.0013 0.08375,0.0064 0.02856,0.01473 0.06295,0.0091 0.06295,-0.0103 0,-0.0063 -0.01295,-0.01485 -0.0288,-0.01899 -0.01584,-0.0042 -0.03729,-0.02772 -0.04766,-0.05238 -0.01038,-0.02467 -0.04254,-0.06095 -0.07149,-0.08062 -0.02895,-0.01967 -0.05263,-0.04408 -0.05263,-0.05424 0,-0.02232 -0.05353,-0.07243 -0.09313,-0.08719 -0.01576,-0.0058 -0.09474,-0.01495 -0.175508,-0.02017 -0.113512,-0.0073 -0.146854,-0.0054 -0.146854,0.0085 0,0.0099 -0.01451,0.01813 -0.03224,0.01823 -0.01773,1.15e-4 -0.04645,0.004 -0.06382,0.0087 -0.02522,0.0068 -0.03342,0.0011 -0.04069,-0.02781 -0.0088,-0.03501 -0.0495,-0.06619 -0.0495,-0.03791 0,0.02201 -0.08169,0.01611 -0.105407,-0.0076 -0.01182,-0.01182 -0.03115,-0.02149 -0.04297,-0.02149 -0.01529,0 -0.02432,-0.0227 -0.03133,-0.0788 -0.01064,-0.08519 -0.01394,-0.08855 -0.05585,-0.05686 -0.0153,0.01157 -0.0572,0.02126 -0.09313,0.02154 -0.03592,2.82e-4 -0.08143,0.0097 -0.101134,0.02099 -0.0197,0.01126 -0.05309,0.0207 -0.0742,0.02098 -0.02111,2.83e-4 -0.04805,0.01018 -0.05987,0.022 -0.01182,0.01182 -0.0442,0.02149 -0.07195,0.02149 -0.0798,0 -0.192048,0.02857 -0.200685,0.05108 -0.0044,0.01131 -0.01785,0.02056 -0.03002,0.02056 -0.01218,0 -0.03333,0.0056 -0.04701,0.0126 -0.07734,0.03916 -0.17263,0.058 -0.250768,0.04956 -0.07128,-0.0077 -0.08378,-0.01355 -0.0911,-0.0427 -0.0046,-0.01858 -0.01745,-0.03379 -0.02842,-0.03379 -0.01097,0 -0.01994,-0.0097 -0.01994,-0.02149 0,-0.01182 -0.01251,-0.02149 -0.02781,-0.02149 -0.01529,0 -0.03179,-0.0064 -0.03666,-0.01432 -0.0049,-0.0079 -0.03696,-0.01432 -0.0713,-0.01432 -0.05883,0 -0.06397,-0.0033 -0.0887,-0.05694 -0.01579,-0.03425 -0.03624,-0.05709 -0.05132,-0.05731 -0.01379,-1.72e-4 -0.02507,0.0061 -0.02507,0.01396 0,0.0079 -0.01037,0.01432 -0.02304,0.01432 -0.01738,0 -0.02085,-0.0087 -0.01412,-0.03554 0.0081,-0.03216 0.0058,-0.03438 -0.02352,-0.02327 -0.01784,0.0067 -0.06629,0.0169 -0.107657,0.02256 -0.06543,0.009 -0.07522,0.0071 -0.07522,-0.01422 0,-0.01852 -0.0079,-0.02232 -0.03224,-0.01556 -0.09335,0.02591 -0.09671,0.02608 -0.09671,0.0051 0,-0.01473 -0.01075,-0.019 -0.03582,-0.01421 -0.02626,0.005 -0.03581,6.72e-4 -0.03581,-0.01631 0,-0.0149 -0.01227,-0.02316 -0.03442,-0.02316 -0.02559,0 -0.03903,-0.01195 -0.05242,-0.04656 -0.02619,-0.06774 -0.02906,-0.211737 -0.0044,-0.221197 0.02618,-0.01005 0.0251,-0.07091 -0.0014,-0.0811 -0.01157,-0.0044 -0.0243,-0.0028 -0.02829,0.0037 -0.0096,0.01561 -0.122602,0.01519 -0.122602,-4.55e-4 0,-0.0067 -0.0249,-0.01619 -0.05533,-0.02105 -0.08581,-0.01372 -0.09766,-0.02535 -0.07824,-0.07681 0.01478,-0.03915 0.01365,-0.04363 -0.01094,-0.04363 -0.01647,0 -0.02749,-0.01001 -0.02763,-0.02507 -1.15e-4,-0.01423 -0.0048,-0.01884 -0.01075,-0.01067 -0.01603,0.02193 -0.115679,0.05318 -0.133826,0.04197 -0.03923,-0.02424 -0.209076,-0.0015 -0.288412,0.03852 -0.01368,0.0069 -0.04393,0.01257 -0.06721,0.01257 -0.02328,0 -0.04588,0.0057 -0.05021,0.01275 -0.0044,0.007 -0.02889,0.01621 -0.05457,0.02046 -0.08724,0.01441 -0.366347,0.09048 -0.404876,0.110356 -0.03886,0.02005 -0.329995,0.05419 -0.401161,0.04705 -0.101735,-0.0102 -0.118321,-0.01727 -0.127634,-0.05437 -0.005,-0.01977 -0.01535,-0.03594 -0.02308,-0.03594 -0.01733,0 -0.01847,-0.0631 -0.0017,-0.0969 0.0068,-0.01368 0.02364,-0.06011 0.0375,-0.10316 0.0296,-0.09198 0.0608,-0.14379 0.08661,-0.14379 0.0109,0 0.01568,-0.01081 0.01163,-0.0263 -0.004,-0.01546 0.0091,-0.04524 0.03178,-0.07224 0.02126,-0.02527 0.03624,-0.04772 0.03329,-0.04989 -0.003,-0.0021 -0.0505,-0.0125 -0.105654,-0.02294 -0.125119,-0.02369 -0.136109,-0.02782 -0.136109,-0.05109 0,-0.02 -0.0028,-0.02072 -0.218185,-0.05774 -0.0882,-0.01515 -0.150825,-0.03387 -0.170537,-0.05096 -0.01713,-0.01486 -0.04758,-0.02702 -0.06765,-0.02702 -0.05941,0 -0.202679,-0.04782 -0.202679,-0.06765 0,-0.01187 -0.02051,-0.01831 -0.05825,-0.01831 -0.03204,0 -0.07169,-0.0072 -0.08811,-0.01598 -0.01642,-0.0088 -0.06234,-0.01598 -0.102025,-0.01598 -0.04237,0 -0.08036,-0.0082 -0.092,-0.01984 -0.01946,-0.01946 -0.06477,-0.02703 -0.128827,-0.02152 -0.01773,0.0015 -0.03224,-0.0033 -0.03224,-0.01076 0,-0.0074 -0.01289,-0.01015 -0.02866,-0.006 -0.01576,0.0041 -0.02866,5.19e-4 -0.02866,-0.0081 0,-0.0085 -0.01008,-0.01168 -0.0224,-0.007 -0.0278,0.01066 -0.240831,-0.04173 -0.453529,-0.111546 -0.09957,-0.03269 -0.26563,-0.03535 -0.372261,-0.006 -0.04175,0.0115 -0.137165,0.03773 -0.212026,0.05829 -0.08315,0.02284 -0.191853,0.04043 -0.279379,0.0452 -0.137673,0.0075 -0.144515,0.0064 -0.175087,-0.02653 -0.01749,-0.01889 -0.03727,-0.05993 -0.04393,-0.09119 -0.0096,-0.04494 -0.01791,-0.05594 -0.03982,-0.05257 -0.09756,0.01502 -0.538437,0.169781 -0.548265,0.192458 -0.0026,0.006 -0.01874,0.01093 -0.03582,0.01081 -0.03471,-2.38e-4 -0.227619,0.05884 -0.238786,0.07312 -0.01115,0.01426 -0.300524,0.108232 -0.530107,0.172156 -0.114259,0.03181 -0.222554,0.06383 -0.240654,0.07115 -0.0181,0.0073 -0.0802,0.01331 -0.137989,0.01331 h -0.105077 l -0.01603,-0.06365 c -0.0088,-0.03501 -0.01603,-0.08014 -0.01603,-0.100291 0,-0.02671 -0.0075,-0.03663 -0.02781,-0.03663 -0.01529,0 -0.03127,0.0056 -0.03549,0.01244 -0.0042,0.0068 -0.03958,0.01667 -0.07857,0.02184 -0.03899,0.0052 -0.07298,0.01418 -0.07554,0.02003 -0.0026,0.0058 -0.05946,0.02566 -0.12644,0.04404 -0.06698,0.01837 -0.144347,0.04157 -0.171927,0.05156 -0.02758,0.01 -0.08399,0.02611 -0.125362,0.03584 -0.04137,0.0097 -0.07522,0.02235 -0.07522,0.02804 0,0.01439 -0.266081,0.04958 -0.285267,0.03773 -0.04662,-0.02882 0.01261,-0.108243 0.08071,-0.108243 0.01794,0 0.03263,-0.0087 0.03263,-0.01923 0,-0.01058 0.02263,-0.03142 0.0503,-0.04632 0.04136,-0.02227 0.04581,-0.02872 0.02507,-0.03631 -0.01387,-0.005 -0.03193,-0.0039 -0.04011,0.0026 -0.0082,0.0065 -0.04043,0.0179 -0.07164,0.02534 -0.03121,0.0074 -0.09517,0.02389 -0.142136,0.03657 -0.04696,0.01267 -0.119497,0.02304 -0.161181,0.02304 -0.07466,0 -0.07579,-6.5e-4 -0.07579,-0.04298 0,-0.03602 -0.0056,-0.04298 -0.03497,-0.04298 -0.01923,0 -0.0394,-0.0072 -0.04481,-0.01593 -0.01037,-0.01678 -0.142771,-0.006 -0.170578,0.01396 -0.0081,0.0058 -0.09205,0.007 -0.186612,0.0027 -0.155628,-0.0071 -0.171926,-0.0104 -0.171926,-0.03466 0,-0.0535 0.329501,-0.211206 0.703823,-0.336866 0.201458,-0.06763 0.335511,-0.107967 0.958132,-0.288305 0.246984,-0.07154 0.654646,-0.20049 0.702032,-0.222068 0.02364,-0.01077 0.06394,-0.02372 0.08955,-0.02879 0.02561,-0.0051 0.04656,-0.01515 0.04656,-0.0224 0,-0.0073 0.01336,-0.01319 0.02968,-0.01319 0.01632,0 0.03969,-0.01001 0.05193,-0.02226 0.01224,-0.01224 0.03596,-0.02025 0.05271,-0.0178 0.01675,0.0024 0.03693,-0.0038 0.04485,-0.01394 0.0079,-0.01011 0.03927,-0.02062 0.06966,-0.02335 0.03039,-0.0028 0.05962,-0.01202 0.06495,-0.02066 0.0053,-0.0086 0.03202,-0.01751 0.05929,-0.01974 0.02727,-0.0022 0.05671,-0.01315 0.06543,-0.02428 0.0087,-0.01113 0.02568,-0.01646 0.03772,-0.01184 0.02913,0.01118 0.141811,-0.01811 0.167247,-0.04346 0.01154,-0.01151 0.03767,-0.0176 0.06089,-0.01419 0.02237,0.0033 0.04067,6.28e-4 0.04067,-0.0059 0,-0.0065 0.0087,-0.01185 0.01929,-0.01185 0.01061,0 0.04028,-0.01047 0.06594,-0.02327 0.04,-0.01995 0.08158,-0.02899 0.152523,-0.03312 0.0086,-5.2e-4 0.03441,-0.01702 0.05731,-0.03672 0.02289,-0.01969 0.04634,-0.03581 0.05209,-0.03581 0.0058,-9e-6 0.06475,-0.0258 0.131093,-0.05733 0.06634,-0.03152 0.126105,-0.05732 0.132803,-0.05734 0.0067,-1.4e-5 0.06375,-0.02659 0.126797,-0.05907 0.12156,-0.06261 0.434167,-0.201622 0.494288,-0.219805 0.0197,-0.006 0.05516,-0.01933 0.0788,-0.02971 0.09482,-0.04165 0.380562,-0.148892 0.51175,-0.192064 0.167722,-0.0552 0.538469,-0.263209 0.612935,-0.343896 0.02758,-0.02989 0.08561,-0.0755 0.128945,-0.101371 0.171027,-0.102091 0.190888,-0.11843 0.166044,-0.136597 -0.03869,-0.02829 -0.02545,-0.06307 0.03941,-0.103455 0.05814,-0.0362 0.0621,-0.04269 0.06089,-0.09992 -0.0011,-0.05123 0.0062,-0.06818 0.04449,-0.104006 0.02518,-0.02354 0.05097,-0.043 0.05731,-0.04326 0.0063,-2.38e-4 0.02355,-0.0096 0.03825,-0.0207 0.02596,-0.01966 0.02586,-0.02136 -0.0036,-0.05878 -0.0496,-0.06305 -0.04021,-0.113374 0.03058,-0.164026 0.03349,-0.02396 0.07225,-0.05302 0.08613,-0.06456 0.01388,-0.01154 0.02813,-0.02099 0.03165,-0.02099 0.0036,0 0.03521,-0.01739 0.07041,-0.03866 0.04876,-0.02946 0.06607,-0.04972 0.07272,-0.08517 0.007,-0.03729 0.02498,-0.05653 0.09061,-0.09697 0.04504,-0.02774 0.098,-0.06348 0.117698,-0.0794 0.0197,-0.01592 0.04387,-0.02904 0.05373,-0.02915 0.0099,-5.7e-5 0.01791,-0.0099 0.01791,-0.02169 0,-0.01182 0.0059,-0.02149 0.01311,-0.02149 0.0072,0 0.02817,-0.01267 0.04656,-0.02814 0.08553,-0.07195 0.12173,-0.09761 0.15037,-0.106564 0.01702,-0.0053 0.04135,-0.02555 0.05406,-0.04494 0.01271,-0.01939 0.02999,-0.03526 0.03839,-0.03526 0.0084,0 0.04636,-0.03224 0.08434,-0.07164 0.03797,-0.0394 0.07775,-0.07164 0.08839,-0.07164 0.01064,0 0.02649,-0.01144 0.03522,-0.02543 0.0087,-0.01398 0.04245,-0.03817 0.07492,-0.05373 0.03247,-0.01557 0.05911,-0.03314 0.0592,-0.03905 1.14e-4,-0.0059 0.0063,-0.01075 0.0138,-0.01075 0.0075,0 0.0349,-0.02121 0.06089,-0.04713 0.09123,-0.091 0.21792,-0.19643 0.236036,-0.19643 0.01007,0 0.0293,-0.01679 0.04274,-0.0373 0.01345,-0.02052 0.05872,-0.06263 0.100621,-0.09358 0.0419,-0.03095 0.07618,-0.06574 0.07618,-0.07732 0,-0.01157 0.0062,-0.02104 0.01367,-0.02104 0.0075,0 0.02979,-0.01612 0.0495,-0.03581 0.0197,-0.0197 0.04095,-0.0359 0.04721,-0.036 0.0062,-1.14e-4 0.03908,-0.02589 0.07291,-0.05731 0.03383,-0.03142 0.06516,-0.05713 0.06962,-0.05713 0.0044,0 0.02191,-0.01247 0.03878,-0.02771 0.01687,-0.01524 0.09192,-0.08045 0.166782,-0.144902 0.07486,-0.06446 0.149875,-0.130966 0.1667,-0.147799 0.01682,-0.01684 0.05195,-0.04672 0.07805,-0.06643 0.02611,-0.0197 0.07839,-0.06644 0.116192,-0.103872 0.0378,-0.03743 0.07499,-0.06805 0.08263,-0.06805 0.0076,0 0.02079,-0.01289 0.02923,-0.02866 0.0084,-0.01576 0.02317,-0.02879 0.03274,-0.02896 0.0096,-1.73e-4 0.05719,-0.03749 0.105822,-0.08294 0.04863,-0.04545 0.105914,-0.092 0.127297,-0.103445 0.02138,-0.01144 0.04842,-0.03537 0.06009,-0.05317 0.01166,-0.0178 0.02659,-0.03236 0.03316,-0.03236 0.01198,0 0.143188,-0.084 0.15667,-0.100305 0.004,-0.0048 0.03295,-0.02397 0.06447,-0.04268 0.03152,-0.01871 0.133354,-0.08445 0.226298,-0.146098 0.09294,-0.06164 0.172197,-0.112077 0.176119,-0.112077 0.0086,0 0.151003,-0.104499 0.179229,-0.131548 0.01105,-0.01059 0.03927,-0.03155 0.06271,-0.04658 0.02343,-0.01502 0.04922,-0.03271 0.05731,-0.03929 0.02853,-0.02324 0.23689,-0.177133 0.297266,-0.219559 0.03364,-0.02364 0.09021,-0.05833 0.125698,-0.07709 0.03549,-0.01876 0.09355,-0.05495 0.129005,-0.08042 0.117785,-0.08461 0.395834,-0.245554 0.687705,-0.398074 0.0591,-0.03089 0.113901,-0.06013 0.121781,-0.06501 0.0079,-0.0049 0.05596,-0.02342 0.106845,-0.04122 0.05089,-0.0178 0.137922,-0.05135 0.193417,-0.07455 0.05549,-0.0232 0.152087,-0.06052 0.214659,-0.08293 0.100455,-0.03598 0.115055,-0.04575 0.124861,-0.0836 0.0075,-0.02889 0.03694,-0.0615 0.09033,-0.100091 0.04359,-0.03148 0.07925,-0.06245 0.0793,-0.06883 5.4e-5,-0.0064 -0.006,-0.0078 -0.01357,-0.0032 -0.02109,0.01304 -0.08663,-0.0077 -0.08663,-0.02741 0,-0.0097 0.01914,-0.03635 0.04258,-0.05933 0.02344,-0.02298 0.04278,-0.05222 0.04298,-0.06496 2.14e-4,-0.01274 0.02619,-0.04023 0.05769,-0.06109 0.0315,-0.02086 0.05729,-0.04397 0.05729,-0.05138 0,-0.0074 0.02243,-0.0241 0.04983,-0.0371 0.06926,-0.03287 0.121161,-0.145122 0.07911,-0.171112 -0.02733,-0.01691 -0.0141,-0.04954 0.02928,-0.07195 0.02398,-0.0124 0.04936,-0.0378 0.05648,-0.05645 0.0076,-0.01997 0.03385,-0.04148 0.06387,-0.05234 0.02801,-0.01013 0.05097,-0.02703 0.05097,-0.03755 0,-0.03708 0.0456,-0.08804 0.08686,-0.0971 0.05198,-0.01142 0.05185,-0.01124 0.06954,-0.120966 0.008,-0.04972 0.02445,-0.101342 0.03653,-0.1147 0.01209,-0.01336 0.02196,-0.03503 0.02196,-0.04816 0,-0.01423 0.02592,-0.03604 0.06414,-0.05401 0.03815,-0.01792 0.07243,-0.04678 0.0846,-0.07118 0.0188,-0.03764 0.0182,-0.04175 -0.0069,-0.04969 -0.03345,-0.01062 -0.03687,-0.07164 -0.0047,-0.084 0.01249,-0.0048 0.04741,-0.0087 0.07763,-0.0087 0.0894,0 0.09949,-0.0082 0.08161,-0.06643 -0.01773,-0.0579 -0.002,-0.07625 0.06622,-0.07662 0.05964,-3.46e-4 0.09577,-0.0249 0.09577,-0.0652 0,-0.03325 0.0047,-0.03531 0.0788,-0.03531 h 0.0788 V 46.2463 c 0,-0.02758 0.0071,-0.05015 0.01565,-0.05015 0.0086,0 0.03203,-0.01289 0.05205,-0.02866 0.02001,-0.01576 0.04842,-0.02866 0.06313,-0.02866 0.02747,0 0.03586,-0.03873 0.02901,-0.134546 l -0.0027,-0.04142 0.08548,0.0078 c 0.07929,0.0072 0.0858,0.0055 0.08987,-0.02291 0.0027,-0.01764 0.01659,-0.03255 0.03304,-0.03512 0.01578,-0.0025 0.04338,-0.0118 0.06145,-0.02077 0.02653,-0.01318 0.03109,-0.02403 0.02391,-0.05657 -0.0083,-0.03789 -0.006,-0.04025 0.03888,-0.03992 0.02626,1.72e-4 0.07571,0.0068 0.109945,0.0147 0.04903,0.01131 0.07152,0.0097 0.10607,-0.0075 0.02411,-0.01203 0.05265,-0.02187 0.0634,-0.02187 0.01404,0 0.01686,-0.01079 0.01001,-0.03801 l -0.0095,-0.03801 0.09682,0.0099 c 0.08083,0.0083 0.09966,0.006 0.113995,-0.01356 0.01444,-0.01976 0.02599,-0.02104 0.073,-0.0081 0.0409,0.0113 0.05849,0.01108 0.06588,-8.06e-4 0.0054,-0.0089 0.04197,-0.0169 0.08097,-0.0177 0.03902,-8.06e-4 0.07993,-0.0089 0.09089,-0.01787 0.01431,-0.01178 0.06434,-0.01302 0.177547,-0.0044 0.08668,0.0066 0.180744,0.0086 0.209017,0.0044 0.06212,-0.0093 0.254618,0.01872 0.281394,0.04094 0.01417,0.01177 0.02814,0.01114 0.05339,-0.0024 0.02566,-0.01374 0.04513,-0.01447 0.07831,-0.0029 0.03996,0.01393 0.04412,0.01261 0.04412,-0.01408 0,-0.02519 0.0054,-0.0279 0.03942,-0.01872 0.02169,0.0059 0.05467,0.0098 0.07331,0.0087 0.01867,-0.0011 0.05735,0.01102 0.08596,0.02694 0.07465,0.0415 0.344859,0.127348 0.354046,0.112484 0.01189,-0.01923 0.06071,-0.01494 0.118501,0.01043 0.107554,0.04719 0.124216,0.05622 0.13515,0.07328 0.0067,0.01022 0.0274,0.01433 0.05017,0.0099 0.02995,-0.0058 0.06132,0.0075 0.135983,0.05776 0.05339,0.03594 0.101792,0.06535 0.107588,0.06535 0.006,0 0.0186,0.01289 0.02841,0.02866 0.0098,0.01576 0.02612,0.02866 0.0362,0.02866 0.01007,0 0.0503,0.03261 0.08943,0.07245 0.03909,0.03985 0.10425,0.09151 0.144774,0.114792 0.0405,0.02328 0.08441,0.0587 0.09751,0.07869 0.0131,0.01999 0.08632,0.101496 0.162712,0.181119 0.07639,0.07962 0.175968,0.183594 0.22128,0.231048 0.04533,0.04745 0.08238,0.09428 0.08238,0.104057 0,0.0098 0.0047,0.01993 0.01075,0.02255 0.01357,0.006 0.119455,0.135445 0.152685,0.186629 0.01377,0.02122 0.03579,0.06735 0.04903,0.102515 0.0223,0.0595 0.03338,0.06886 0.160066,0.135 0.218097,0.113875 0.264611,0.138941 0.27222,0.146693 0.004,0.004 0.03277,0.02013 0.06407,0.03581 0.0313,0.01568 0.06353,0.03369 0.07164,0.04 0.0081,0.0063 0.07479,0.04696 0.148219,0.09033 0.205464,0.121353 0.468081,0.324004 0.548402,0.423176 0.02686,0.03313 0.06071,0.07149 0.07531,0.08524 0.0362,0.03412 0.0666,0.09552 0.0666,0.134528 0,0.02713 -0.01,0.03359 -0.0606,0.04042 -0.03331,0.0044 -0.068,0.0019 -0.07712,-0.0056 -0.01115,-0.0093 -0.01934,-0.0066 -0.02498,0.0081 -0.0047,0.01202 -0.02263,0.02185 -0.04009,0.02185 -0.03707,0 -0.115587,0.02388 -0.178192,0.0542 -0.02431,0.01177 -0.05326,0.01838 -0.06434,0.01469 -0.01108,-0.0037 -0.02874,0.0019 -0.03922,0.01234 -0.01048,0.01048 -0.03472,0.01906 -0.05386,0.01906 -0.01914,0 -0.03479,0.0058 -0.03479,0.01277 0,0.007 -0.01612,0.01682 -0.0358,0.02177 -0.01968,0.005 -0.0358,0.01531 -0.0358,0.02304 0,0.0077 -0.02257,0.01406 -0.05017,0.01406 -0.0276,0 -0.05017,0.0064 -0.05017,0.01433 0,0.02062 -0.03922,0.01768 -0.04782,-0.0036 -0.004,-0.0099 -0.0077,-0.004 -0.0084,0.01294 -6.71e-4,0.02636 -0.01209,0.03211 -0.07635,0.03952 -0.04137,0.0048 -0.122618,0.0081 -0.180556,0.0074 -0.09894,-0.0011 -0.188366,0.01966 -0.188366,0.0439 0,0.0059 -0.0274,0.01543 -0.06091,0.02113 -0.05413,0.0092 -0.05749,0.01197 -0.03049,0.02469 0.02505,0.0118 0.03069,0.02788 0.03217,0.09174 0.0013,0.05997 -0.0034,0.07744 -0.01961,0.07744 -0.01175,0 -0.02142,0.0097 -0.02142,0.02149 0,0.01182 -0.0097,0.02149 -0.02149,0.02149 -0.01182,0 -0.02149,0.0064 -0.02149,0.01433 0,0.0079 0.0067,0.01433 0.01431,0.01433 0.0079,0 0.0143,0.02135 0.0143,0.04744 0,0.02764 0.01195,0.06028 0.02868,0.0782 0.02935,0.03153 0.03734,0.06789 0.01753,0.08013 -0.01316,0.0081 -0.01054,0.102886 0.004,0.148822 0.0067,0.02082 0.0047,0.03224 -0.006,0.03224 -0.0091,0 -0.02485,0.0077 -0.03499,0.01717 -0.01491,0.01395 -0.01471,0.02454 0.0013,0.05656 0.01081,0.02167 0.02592,0.07845 0.03365,0.12619 0.01135,0.07045 0.0098,0.09487 -0.0082,0.129695 -0.01357,0.02624 -0.01625,0.0429 -0.0069,0.0429 0.01021,0 0.01343,0.04435 0.0097,0.132526 -0.0054,0.126458 -0.004,0.134822 0.03324,0.182672 0.06085,0.07845 0.09574,0.157915 0.106862,0.243562 0.0054,0.04334 0.02639,0.115403 0.04614,0.16014 0.01975,0.04473 0.0317,0.08825 0.02646,0.09671 -0.0054,0.0085 -0.0034,0.01537 0.0047,0.01537 0.02263,0 0.06051,0.133615 0.06696,0.236269 0.0034,0.05218 0.01041,0.10209 0.01592,0.110919 0.01088,0.01759 0.01303,0.04667 0.02639,0.358426 0.006,0.133267 0.004,0.211327 -0.0047,0.211327 -0.0077,0 -0.0133,0.03385 -0.01249,0.07522 6.51e-4,0.04137 -4.37e-4,0.128505 -0.0027,0.193635 -0.0034,0.100106 -0.0083,0.120719 -0.03183,0.1333 -0.02263,0.01212 -0.02606,0.02421 -0.0184,0.06506 0.0073,0.03912 0.0034,0.0571 -0.01948,0.08161 -0.03687,0.04016 -0.04681,0.08937 -0.05306,0.261414 -0.0034,0.08509 -0.01148,0.143247 -0.02163,0.149524 -0.0091,0.0056 -0.0176,0.04185 -0.0188,0.08044 -0.0013,0.03859 -0.008,0.07426 -0.01511,0.07927 -0.0071,0.005 -0.0137,0.03832 -0.01471,0.07403 -0.0013,0.03571 -0.0067,0.06976 -0.01256,0.07566 -0.006,0.0059 -0.01075,0.02766 -0.01075,0.04833 0,0.08907 -0.111134,0.409752 -0.177573,0.512405 -0.02344,0.03618 -0.04023,0.04666 -0.07509,0.0468 -0.04835,1.72e-4 -0.07097,0.02498 -0.104627,0.114796 -0.04775,0.127357 -0.121845,0.272217 -0.139259,0.272217 -0.01054,0 -0.01921,0.0097 -0.01921,0.02149 0,0.01182 -0.0097,0.02149 -0.02149,0.02149 -0.01551,0 -0.02149,-0.01592 -0.02149,-0.05731 0,-0.03152 -0.0067,-0.05731 -0.0143,-0.05731 -0.0079,0 -0.01431,0.006 -0.01431,0.0133 0,0.0073 -0.0092,0.0225 -0.02042,0.03373 -0.02485,0.02488 -0.08124,0.158724 -0.115942,0.275322 -0.0321,0.107926 -0.07784,0.193417 -0.103431,0.193417 -0.01901,0 -0.01914,-0.06075 -6.51e-4,-0.28458 0.0027,-0.03621 -0.004,-0.05334 -0.02693,-0.06895 -0.03002,-0.02012 -0.0317,-0.01815 -0.05514,0.06251 -0.04809,0.165848 -0.159508,0.405642 -0.18846,0.405642 -0.01054,0 -0.01914,-0.0064 -0.01914,-0.01432 0,-0.03353 -0.02431,-0.009 -0.064,0.06452 -0.02881,0.05342 -0.05131,0.07875 -0.07003,0.07875 -0.02512,0 -0.02666,-0.0073 -0.01793,-0.08238 0.0054,-0.04531 0.01585,-0.08453 0.02344,-0.08716 0.0076,-0.0026 0.01383,-0.01531 0.01383,-0.02818 0,-0.01287 0.01061,-0.05121 0.02357,-0.08519 0.0186,-0.04867 0.02015,-0.06931 0.0075,-0.09719 -0.01773,-0.03888 -0.0597,-0.04835 -0.0597,-0.01345 0,0.01207 -0.0097,0.02565 -0.02149,0.03019 -0.01182,0.0045 -0.02149,0.02367 -0.02149,0.04253 0,0.01886 -0.0067,0.03428 -0.01431,0.03428 -0.0079,0 -0.0143,0.0129 -0.0143,0.02866 0,0.01576 -0.0067,0.02866 -0.01431,0.02866 -0.0079,0 -0.0143,0.01236 -0.0143,0.02746 0,0.0151 -0.0054,0.02961 -0.01182,0.03224 -0.0067,0.0026 -0.03586,0.05313 -0.06521,0.11223 -0.07048,0.14196 -0.111227,0.200364 -0.139904,0.200482 -0.02686,1.15e-4 -0.04076,-0.02802 -0.0413,-0.08346 l -4.29e-4,-0.03823 -0.04224,0.05015 c -0.02324,0.02758 -0.04238,0.05821 -0.04258,0.06805 -6.71e-4,0.03669 -0.04009,0.01631 -0.04835,-0.02507 -0.0047,-0.02364 -0.01491,-0.04298 -0.02257,-0.04298 -0.01639,0 -0.08062,0.08158 -0.115573,0.146752 -0.01484,0.02769 -0.04076,0.05002 -0.06602,0.0569 -0.03069,0.0084 -0.0544,0.03378 -0.09056,0.09725 -0.05165,0.09061 -0.06622,0.100366 -0.09376,0.06273 -0.01464,-0.02002 -0.02122,-0.02053 -0.04815,-0.0037 -0.01712,0.01071 -0.03116,0.03044 -0.03116,0.04383 0,0.0134 -0.006,0.02804 -0.01323,0.03254 -0.0073,0.0045 -0.01746,0.02744 -0.02263,0.05099 -0.0054,0.02355 -0.01813,0.04282 -0.02881,0.04282 -0.01068,0 -0.02377,0.01451 -0.02915,0.03224 -0.01095,0.0363 -0.07348,0.09671 -0.100093,0.09671 -0.0096,0 -0.02129,0.01898 -0.02592,0.04219 -0.0097,0.04858 -0.09624,0.144064 -0.130536,0.144064 -0.02861,0 -0.102295,0.07355 -0.115559,0.115341 -0.0054,0.01696 -0.03492,0.05675 -0.06568,0.08842 -0.03076,0.03167 -0.05588,0.06325 -0.05588,0.07018 0,0.0069 -0.0097,0.0126 -0.02149,0.0126 -0.01182,0 -0.02156,-0.0081 -0.02156,-0.01791 0,-0.0099 -0.0086,-0.0018 -0.01894,0.01791 -0.03815,0.07249 -0.06031,0.100797 -0.0848,0.108579 -0.01384,0.0044 -0.02512,0.01398 -0.02512,0.02133 0,0.01703 -0.05319,0.07067 -0.07009,0.07067 -0.007,0 -0.01686,-0.01625 -0.02183,-0.03612 l -0.0091,-0.03612 -0.03546,0.03547 c -0.01948,0.01951 -0.03546,0.03926 -0.03546,0.04389 0,0.0046 -0.0067,0.01621 -0.01478,0.02572 -0.0081,0.0095 -0.04426,0.0576 -0.08021,0.106849 -0.08034,0.109979 -0.112483,0.117811 -0.102007,0.02485 0.004,-0.03559 0.0013,-0.0682 -0.0054,-0.07248 -0.0069,-0.0043 -0.01256,0.0015 -0.01256,0.01291 0,0.02108 -0.05856,0.06696 -0.08546,0.06696 -0.0082,0 -0.01484,-0.01124 -0.01484,-0.02498 0,-0.0164 -0.02874,0.0057 -0.08381,0.06447 -0.08888,0.09487 -0.102793,0.102076 -0.131107,0.06796 -0.01981,-0.02389 -0.05729,-0.02905 -0.05729,-0.0079 0,0.01299 -0.127037,0.142418 -0.31361,0.319508 -0.08813,0.08365 -0.139354,0.102757 -0.153638,0.05731 -0.004,-0.01379 -0.0137,-0.03967 -0.02082,-0.05752 l -0.01296,-0.03245 -0.02888,0.02886 c -0.01585,0.01588 -0.02888,0.03531 -0.02888,0.04319 0,0.0079 -0.01028,0.01432 -0.02283,0.01432 -0.01256,0 -0.02619,0.0129 -0.03036,0.02866 -0.004,0.01576 -0.0182,0.02866 -0.0313,0.02866 -0.0131,0 -0.03486,0.0129 -0.04835,0.02866 -0.0135,0.01576 -0.03264,0.02876 -0.04258,0.0289 -0.0099,1.72e-4 -0.03324,0.01625 -0.05178,0.03582 -0.01853,0.01956 -0.04271,0.03557 -0.05373,0.03557 -0.01101,0 -0.02001,0.006 -0.02001,0.0134 0,0.0074 -0.02257,0.02156 -0.05017,0.03153 -0.0276,0.01 -0.05017,0.02328 -0.05017,0.02958 0,0.0063 -0.0097,0.01145 -0.02149,0.01145 -0.04244,0 -0.02021,0.02936 0.05151,0.06806 0.04016,0.02166 0.102886,0.06357 0.139427,0.09312 0.04097,0.03315 0.08163,0.05373 0.106097,0.05373 0.03875,0 0.09698,0.04303 0.09698,0.07164 0,0.0079 0.01551,0.01432 0.03439,0.01432 0.02384,0 0.04312,0.01474 0.06273,0.04795 0.02384,0.04037 0.03895,0.04942 0.09572,0.0572 0.03707,0.0051 0.08785,0.01869 0.112813,0.03024 0.06849,0.03169 0.327653,0.07767 0.356054,0.06318 0.05816,-0.02969 0.227808,-0.0023 0.262999,0.04247 0.01928,0.02455 0.376511,0.03489 0.405805,0.01174 0.01075,-0.0085 0.03976,-0.01676 0.06447,-0.01836 0.02472,-0.0016 0.06974,-0.0076 0.10008,-0.01332 0.03996,-0.0075 0.0585,-0.005 0.06716,0.009 0.0099,0.01598 0.04056,0.01666 0.174075,0.0038 0.203148,-0.01954 0.297223,-0.01618 0.40324,0.01443 0.184645,0.0533 0.323717,0.206268 0.324543,0.356976 1.75e-4,0.03146 -0.006,0.03933 -0.03204,0.03908 -0.01773,-1.71e-4 -0.04835,-0.01293 -0.06805,-0.02833 -0.01968,-0.01541 -0.04265,-0.02816 -0.05091,-0.02833 -0.0083,-1.72e-4 -0.03694,-0.02288 -0.06373,-0.05046 -0.05628,-0.05807 -0.08772,-0.0633 -0.107635,-0.01791 -0.01068,0.0244 -0.03244,0.03549 -0.08936,0.04559 -0.05776,0.01026 -0.07522,0.01931 -0.07522,0.03903 0,0.02069 -0.06387,0.06939 -0.09103,0.06939 -0.0034,0 -0.02525,-0.02341 -0.04822,-0.05201 z m -2.946719,-0.512386 c 6.72e-4,-8.73e-4 0.0054,-0.0257 0.0099,-0.05525 0.006,-0.04101 0.0034,-0.05373 -0.01229,-0.05373 -0.02834,0 -0.02586,-0.02862 0.0047,-0.05191 0.02344,-0.01798 0.0229,-0.01985 -0.0072,-0.02832 -0.01773,-0.005 -0.03224,-0.01477 -0.03224,-0.02172 0,-0.007 -0.0129,-0.01265 -0.02868,-0.01265 -0.01578,0 -0.02868,-0.0087 -0.02868,-0.01927 0,-0.02347 -0.03358,-0.05349 -0.100294,-0.08965 -0.0276,-0.01495 -0.0544,-0.03304 -0.05957,-0.04019 -0.0054,-0.0072 -0.05185,-0.01439 -0.10376,-0.01606 -0.05191,-0.0017 -0.104075,-0.01112 -0.115955,-0.02099 -0.01424,-0.0118 -0.02163,-0.01258 -0.02163,-0.0023 0,0.0087 -0.0223,0.01481 -0.05024,0.01376 -0.0276,-10e-4 -0.05453,0.0024 -0.05977,0.0077 -0.01941,0.01944 -0.01242,0.07938 0.0099,0.08523 0.01242,0.0032 0.03049,0.03226 0.04016,0.06446 0.01075,0.03582 0.02854,0.06203 0.04587,0.06754 0.01558,0.005 0.02834,0.015 0.02834,0.02236 0,0.0073 0.01995,0.01336 0.04432,0.01336 0.0321,0 0.04634,0.0078 0.05171,0.0283 0.0054,0.01935 0.02391,0.03094 0.05957,0.03664 0.09584,0.01533 0.114499,0.02094 0.133787,0.04023 0.02995,0.02994 0.100388,0.04974 0.147601,0.0415 0.02364,-0.0042 0.04365,-0.0082 0.04453,-0.009 z"
       id="path2964" />
    <text
       xml:space="preserve"
       style="font-style:normal;font-variant:normal;font-weight:normal;font-stretch:normal;font-size:10.58333302px;line-height:1.25;font-family:Consolas;-inkscape-font-specification:Consolas;letter-spacing:0px;word-spacing:0px;fill:#000000;fill-opacity:1;stroke:none;stroke-width:0.26458332"
       x="70.438881"
       y="42.278778"
       id="text955"><tspan
         sodipodi:role="line"
         x="70.438881"
         y="51.461681"
         style="font-style:normal;font-variant:normal;font-weight:bold;font-stretch:normal;font-size:4.58611107px;font-family:Consolas;-inkscape-font-specification:'Consolas Bold';fill:#ffffff;fill-opacity:1;stroke-width:0.26458332"
         id="tspan5646" /></text>
    <text
       xml:space="preserve"
       style="font-style:normal;font-variant:normal;font-weight:normal;font-stretch:normal;font-size:10.58333302px;line-height:0.25;font-family:Consolas;-inkscape-font-specification:Consolas;letter-spacing:0px;word-spacing:0px;fill:#000000;fill-opacity:1;stroke:none;stroke-width:0.26458332"
       x="35.006634"
       y="43.987274"
       id="text4618-3"><tspan
         sodipodi:role="line"
         id="tspan4616-5"
         x="35.006634"
         y="43.987274"
         style="font-style:normal;font-variant:normal;font-weight:bold;font-stretch:normal;font-size:2.11666656px;line-height:0.25;font-family:Consolas;-inkscape-font-specification:'Consolas Bold';text-align:center;text-anchor:middle;fill:#ffffff;fill-opacity:1;stroke-width:0.26458332">Infekcję wywołuje wirus hepatitis B (HBV),</tspan><tspan
         sodipodi:role="line"
         x="35.006634"
         y="47.629429"
         style="font-style:normal;font-variant:normal;font-weight:bold;font-stretch:normal;font-size:2.11666656px;line-height:0.25;font-family:Consolas;-inkscape-font-specification:'Consolas Bold';text-align:center;text-anchor:middle;fill:#ffffff;fill-opacity:1;stroke-width:0.26458332"
         id="tspan5644">należący do rodziny Hepadnaviridae,</tspan><tspan
         sodipodi:role="line"
         x="35.589542"
         y="51.271584"
         style="font-style:normal;font-variant:normal;font-weight:bold;font-stretch:normal;font-size:2.11666656px;line-height:0.25;font-family:Consolas;-inkscape-font-specification:'Consolas Bold';text-align:center;text-anchor:middle;fill:#ffffff;fill-opacity:1;stroke-width:0.26458332"
         id="tspan4620-0">których naturalnymi gospodarzami są ptaki </tspan><tspan
         sodipodi:role="line"
         x="35.006634"
         y="54.913738"
         style="font-style:normal;font-variant:normal;font-weight:bold;font-stretch:normal;font-size:2.11666656px;line-height:0.25;font-family:Consolas;-inkscape-font-specification:'Consolas Bold';text-align:center;text-anchor:middle;fill:#ffffff;fill-opacity:1;stroke-width:0.26458332"
         id="tspan4632-5">oraz małpy człekokształtne.</tspan></text>
    <text
       xml:space="preserve"
       style="font-style:normal;font-variant:normal;font-weight:normal;font-stretch:normal;font-size:10.58333302px;line-height:0.25;font-family:Consolas;-inkscape-font-specification:Consolas;letter-spacing:0px;word-spacing:0px;fill:#000000;fill-opacity:1;stroke:none;stroke-width:0.26458332"
       x="35.970932"
       y="67.4478"
       id="text4618-9"><tspan
         sodipodi:role="line"
         x="36.553841"
         y="67.4478"
         style="font-style:normal;font-variant:normal;font-weight:bold;font-stretch:normal;font-size:2.11666656px;line-height:0.25;font-family:Consolas;-inkscape-font-specification:'Consolas Bold';text-align:center;text-anchor:middle;fill:#ffffff;fill-opacity:1;stroke-width:0.26458332"
         id="tspan4632-9">Kod genetyczny wirusa jest niewielki i składa się </tspan><tspan
         sodipodi:role="line"
         x="36.553841"
         y="71.089958"
         style="font-style:normal;font-variant:normal;font-weight:bold;font-stretch:normal;font-size:2.11666656px;line-height:0.25;font-family:Consolas;-inkscape-font-specification:'Consolas Bold';text-align:center;text-anchor:middle;fill:#ffffff;fill-opacity:1;stroke-width:0.26458332"
         id="tspan5142">z sekwencji nieco ponad 3 tysięcy nukleotydów. </tspan><tspan
         sodipodi:role="line"
         x="35.970932"
         y="74.732109"
         style="font-style:normal;font-variant:normal;font-weight:bold;font-stretch:normal;font-size:2.11666656px;line-height:0.25;font-family:Consolas;-inkscape-font-specification:'Consolas Bold';text-align:center;text-anchor:middle;fill:#ffffff;fill-opacity:1;stroke-width:0.26458332"
         id="tspan1376" /><tspan
         sodipodi:role="line"
         x="36.553841"
         y="77.377945"
         style="font-style:normal;font-variant:normal;font-weight:bold;font-stretch:normal;font-size:2.11666656px;line-height:0.25;font-family:Consolas;-inkscape-font-specification:'Consolas Bold';text-align:center;text-anchor:middle;fill:#ffffff;fill-opacity:1;stroke-width:0.26458332"
         id="tspan1378">Kompletną sekwencję nukleotydów HBV </tspan><tspan
         sodipodi:role="line"
         x="35.970932"
         y="81.020096"
         style="font-style:normal;font-variant:normal;font-weight:bold;font-stretch:normal;font-size:2.11666656px;line-height:0.25;font-family:Consolas;-inkscape-font-specification:'Consolas Bold';text-align:center;text-anchor:middle;fill:#ffffff;fill-opacity:1;stroke-width:0.26458332"
         id="tspan5144">można zmieścić w 15 wpisach na Twitterze.</tspan></text>
    <g
       transform="matrix(0.01922684,0,0,0.01922684,60.883723,54.682643)"
       id="layer1-1">
      <g
         id="g5136">
        <path
           d="m 633.89823,812.04479 c 112.46038,0 173.95627,-93.16765 173.95627,-173.95625 0,-2.64628 -0.0539,-5.28062 -0.1726,-7.90305 11.93799,-8.63016 22.31446,-19.39999 30.49762,-31.65984 -10.95459,4.86937 -22.74358,8.14741 -35.11071,9.62551 12.62341,-7.56929 22.31446,-19.54304 26.88583,-33.81739 -11.81284,7.00307 -24.89517,12.09297 -38.82383,14.84055 -11.15723,-11.88436 -27.04079,-19.31655 -44.62892,-19.31655 -33.76374,0 -61.14426,27.38052 -61.14426,61.13233 0,4.79784 0.5364,9.46458 1.58538,13.94057 -50.81546,-2.55686 -95.87353,-26.88582 -126.02546,-63.87991 -5.25082,9.03545 -8.27852,19.53111 -8.27852,30.73006 0,21.21186 10.79366,39.93837 27.20766,50.89296 -10.03077,-0.30992 -19.45363,-3.06348 -27.69044,-7.64676 -0.009,0.25652 -0.009,0.50661 -0.009,0.78077 0,29.60957 21.07478,54.3319 49.0513,59.93435 -5.13757,1.40062 -10.54335,2.15158 -16.12196,2.15158 -3.93364,0 -7.76596,-0.38716 -11.49099,-1.1026 7.78383,24.2932 30.35457,41.97073 57.11525,42.46543 -20.92578,16.40207 -47.28712,26.17062 -75.93712,26.17062 -4.92898,0 -9.79834,-0.28036 -14.58427,-0.84634 27.05868,17.34379 59.18936,27.46396 93.72193,27.46396"
           style="fill:#ffffff;fill-opacity:1;fill-rule:nonzero;stroke:none"
           id="path3611"
           inkscape:connector-curvature="0" />
        <path
           inkscape:connector-curvature="0"
           id="path5093"
           style="fill:#ffffff;fill-opacity:1;fill-rule:nonzero;stroke:none"
           d="m 945.96199,812.04479 c 112.46041,0 173.95631,-93.16765 173.95631,-173.95625 0,-2.64628 -0.054,-5.28062 -0.1726,-7.90305 11.938,-8.63016 22.3144,-19.39999 30.4976,-31.65984 -10.9546,4.86937 -22.7436,8.14741 -35.1107,9.62551 12.6234,-7.56929 22.3144,-19.54304 26.8858,-33.81739 -11.8128,7.00307 -24.8952,12.09297 -38.8238,14.84055 -11.1573,-11.88436 -27.0408,-19.31655 -44.6289,-19.31655 -33.7638,0 -61.14431,27.38052 -61.14431,61.13233 0,4.79784 0.5364,9.46458 1.58538,13.94057 -50.81546,-2.55686 -95.87353,-26.88582 -126.02546,-63.87991 -5.25082,9.03545 -8.27852,19.53111 -8.27852,30.73006 0,21.21186 10.79366,39.93837 27.20766,50.89296 -10.03077,-0.30992 -19.45363,-3.06348 -27.69044,-7.64676 -0.009,0.25652 -0.009,0.50661 -0.009,0.78077 0,29.60957 21.07478,54.3319 49.0513,59.93435 -5.13757,1.40062 -10.54335,2.15158 -16.12196,2.15158 -3.93364,0 -7.76596,-0.38716 -11.49099,-1.1026 7.78383,24.2932 30.35457,41.97073 57.11525,42.46543 -20.92578,16.40207 -47.28712,26.17062 -75.93712,26.17062 -4.92898,0 -9.79834,-0.28036 -14.58427,-0.84634 27.05868,17.34379 59.18936,27.46396 93.72193,27.46396" />
        <path
           d="m 1258.0258,812.04479 c 112.4604,0 173.9563,-93.16765 173.9563,-173.95625 0,-2.64628 -0.054,-5.28062 -0.1726,-7.90305 11.938,-8.63016 22.3144,-19.39999 30.4976,-31.65984 -10.9546,4.86937 -22.7436,8.14741 -35.1107,9.62551 12.6234,-7.56929 22.3144,-19.54304 26.8858,-33.81739 -11.8128,7.00307 -24.8952,12.09297 -38.8238,14.84055 -11.1573,-11.88436 -27.0408,-19.31655 -44.6289,-19.31655 -33.7638,0 -61.1443,27.38052 -61.1443,61.13233 0,4.79784 0.5364,9.46458 1.5853,13.94057 -50.8154,-2.55686 -95.8735,-26.88582 -126.0254,-63.87991 -5.2508,9.03545 -8.2785,19.53111 -8.2785,30.73006 0,21.21186 10.7936,39.93837 27.2076,50.89296 -10.0308,-0.30992 -19.4536,-3.06348 -27.6904,-7.64676 -0.01,0.25652 -0.01,0.50661 -0.01,0.78077 0,29.60957 21.0748,54.3319 49.0513,59.93435 -5.1376,1.40062 -10.5434,2.15158 -16.122,2.15158 -3.9336,0 -7.7659,-0.38716 -11.491,-1.1026 7.7839,24.2932 30.3546,41.97073 57.1153,42.46543 -20.9258,16.40207 -47.2871,26.17062 -75.9371,26.17062 -4.929,0 -9.7984,-0.28036 -14.5843,-0.84634 27.0587,17.34379 59.1893,27.46396 93.7219,27.46396"
           style="fill:#ffffff;fill-opacity:1;fill-rule:nonzero;stroke:none"
           id="path5095"
           inkscape:connector-curvature="0" />
        <path
           inkscape:connector-curvature="0"
           id="path5097"
           style="fill:#ffffff;fill-opacity:1;fill-rule:nonzero;stroke:none"
           d="m 1570.0896,812.04479 c 112.4604,0 173.9563,-93.16765 173.9563,-173.95625 0,-2.64628 -0.054,-5.28062 -0.1726,-7.90305 11.938,-8.63016 22.3144,-19.39999 30.4976,-31.65984 -10.9546,4.86937 -22.7436,8.14741 -35.1107,9.62551 12.6234,-7.56929 22.3144,-19.54304 26.8858,-33.81739 -11.8128,7.00307 -24.8952,12.09297 -38.8238,14.84055 -11.1573,-11.88436 -27.0408,-19.31655 -44.6289,-19.31655 -33.7638,0 -61.1443,27.38052 -61.1443,61.13233 0,4.79784 0.5364,9.46458 1.5853,13.94057 -50.8154,-2.55686 -95.8735,-26.88582 -126.0254,-63.87991 -5.2508,9.03545 -8.2785,19.53111 -8.2785,30.73006 0,21.21186 10.7936,39.93837 27.2076,50.89296 -10.0308,-0.30992 -19.4536,-3.06348 -27.6904,-7.64676 -0.01,0.25652 -0.01,0.50661 -0.01,0.78077 0,29.60957 21.0748,54.3319 49.0513,59.93435 -5.1376,1.40062 -10.5434,2.15158 -16.122,2.15158 -3.9336,0 -7.7659,-0.38716 -11.491,-1.1026 7.7839,24.2932 30.3546,41.97073 57.1153,42.46543 -20.9258,16.40207 -47.2871,26.17062 -75.9371,26.17062 -4.929,0 -9.7984,-0.28036 -14.5843,-0.84634 27.0587,17.34379 59.1893,27.46396 93.7219,27.46396" />
        <path
           d="m 1882.1534,812.04479 c 112.4604,0 173.9563,-93.16765 173.9563,-173.95625 0,-2.64628 -0.054,-5.28062 -0.1726,-7.90305 11.938,-8.63016 22.3144,-19.39999 30.4976,-31.65984 -10.9546,4.86937 -22.7436,8.14741 -35.1107,9.62551 12.6234,-7.56929 22.3144,-19.54304 26.8858,-33.81739 -11.8128,7.00307 -24.8952,12.09297 -38.8238,14.84055 -11.1573,-11.88436 -27.0408,-19.31655 -44.6289,-19.31655 -33.7638,0 -61.1443,27.38052 -61.1443,61.13233 0,4.79784 0.5364,9.46458 1.5853,13.94057 -50.8154,-2.55686 -95.8735,-26.88582 -126.0254,-63.87991 -5.2508,9.03545 -8.2785,19.53111 -8.2785,30.73006 0,21.21186 10.7936,39.93837 27.2076,50.89296 -10.0308,-0.30992 -19.4536,-3.06348 -27.6904,-7.64676 -0.01,0.25652 -0.01,0.50661 -0.01,0.78077 0,29.60957 21.0748,54.3319 49.0513,59.93435 -5.1376,1.40062 -10.5434,2.15158 -16.122,2.15158 -3.9336,0 -7.7659,-0.38716 -11.491,-1.1026 7.7839,24.2932 30.3546,41.97073 57.1153,42.46543 -20.9258,16.40207 -47.2871,26.17062 -75.9371,26.17062 -4.929,0 -9.7984,-0.28036 -14.5843,-0.84634 27.0587,17.34379 59.1893,27.46396 93.7219,27.46396"
           style="fill:#ffffff;fill-opacity:1;fill-rule:nonzero;stroke:none"
           id="path5099"
           inkscape:connector-curvature="0" />
        <path
           inkscape:connector-curvature="0"
           id="path5101"
           style="fill:#ffffff;fill-opacity:1;fill-rule:nonzero;stroke:none"
           d="m 633.89823,1124.1086 c 112.46038,0 173.95627,-93.1677 173.95627,-173.9563 0,-2.64628 -0.0539,-5.28062 -0.1726,-7.90305 11.93799,-8.63016 22.31446,-19.39999 30.49762,-31.65984 -10.95459,4.86937 -22.74358,8.14741 -35.11071,9.62551 12.62341,-7.56929 22.31446,-19.54304 26.88583,-33.81739 -11.81284,7.00307 -24.89517,12.09297 -38.82383,14.84055 -11.15723,-11.88436 -27.04079,-19.31655 -44.62892,-19.31655 -33.76374,0 -61.14426,27.38052 -61.14426,61.13233 0,4.79784 0.5364,9.46458 1.58538,13.94057 -50.81546,-2.55686 -95.87353,-26.88582 -126.02546,-63.87991 -5.25082,9.03545 -8.27852,19.53111 -8.27852,30.73006 0,21.21186 10.79366,39.93837 27.20766,50.89296 -10.03077,-0.30992 -19.45363,-3.06348 -27.69044,-7.64676 -0.009,0.25652 -0.009,0.50661 -0.009,0.78077 0,29.60957 21.07478,54.33195 49.0513,59.93435 -5.13757,1.4006 -10.54335,2.1516 -16.12196,2.1516 -3.93364,0 -7.76596,-0.3872 -11.49099,-1.1026 7.78383,24.2932 30.35457,41.9707 57.11525,42.4654 -20.92578,16.4021 -47.28712,26.1706 -75.93712,26.1706 -4.92898,0 -9.79834,-0.2803 -14.58427,-0.8463 27.05868,17.3438 59.18936,27.464 93.72193,27.464" />
        <path
           d="m 945.96199,1124.1086 c 112.46041,0 173.95631,-93.1677 173.95631,-173.9563 0,-2.64628 -0.054,-5.28062 -0.1726,-7.90305 11.938,-8.63016 22.3144,-19.39999 30.4976,-31.65984 -10.9546,4.86937 -22.7436,8.14741 -35.1107,9.62551 12.6234,-7.56929 22.3144,-19.54304 26.8858,-33.81739 -11.8128,7.00307 -24.8952,12.09297 -38.8238,14.84055 -11.1573,-11.88436 -27.0408,-19.31655 -44.6289,-19.31655 -33.7638,0 -61.14431,27.38052 -61.14431,61.13233 0,4.79784 0.5364,9.46458 1.58538,13.94057 -50.81546,-2.55686 -95.87353,-26.88582 -126.02546,-63.87991 -5.25082,9.03545 -8.27852,19.53111 -8.27852,30.73006 0,21.21186 10.79366,39.93837 27.20766,50.89296 -10.03077,-0.30992 -19.45363,-3.06348 -27.69044,-7.64676 -0.009,0.25652 -0.009,0.50661 -0.009,0.78077 0,29.60957 21.07478,54.33195 49.0513,59.93435 -5.13757,1.4006 -10.54335,2.1516 -16.12196,2.1516 -3.93364,0 -7.76596,-0.3872 -11.49099,-1.1026 7.78383,24.2932 30.35457,41.9707 57.11525,42.4654 -20.92578,16.4021 -47.28712,26.1706 -75.93712,26.1706 -4.92898,0 -9.79834,-0.2803 -14.58427,-0.8463 27.05868,17.3438 59.18936,27.464 93.72193,27.464"
           style="fill:#ffffff;fill-opacity:1;fill-rule:nonzero;stroke:none"
           id="path5103"
           inkscape:connector-curvature="0" />
        <path
           inkscape:connector-curvature="0"
           id="path5105"
           style="fill:#ffffff;fill-opacity:1;fill-rule:nonzero;stroke:none"
           d="m 1258.0258,1124.1086 c 112.4604,0 173.9563,-93.1677 173.9563,-173.9563 0,-2.64628 -0.054,-5.28062 -0.1726,-7.90305 11.938,-8.63016 22.3144,-19.39999 30.4976,-31.65984 -10.9546,4.86937 -22.7436,8.14741 -35.1107,9.62551 12.6234,-7.56929 22.3144,-19.54304 26.8858,-33.81739 -11.8128,7.00307 -24.8952,12.09297 -38.8238,14.84055 -11.1573,-11.88436 -27.0408,-19.31655 -44.6289,-19.31655 -33.7638,0 -61.1443,27.38052 -61.1443,61.13233 0,4.79784 0.5364,9.46458 1.5853,13.94057 -50.8154,-2.55686 -95.8735,-26.88582 -126.0254,-63.87991 -5.2508,9.03545 -8.2785,19.53111 -8.2785,30.73006 0,21.21186 10.7936,39.93837 27.2076,50.89296 -10.0308,-0.30992 -19.4536,-3.06348 -27.6904,-7.64676 -0.01,0.25652 -0.01,0.50661 -0.01,0.78077 0,29.60957 21.0748,54.33195 49.0513,59.93435 -5.1376,1.4006 -10.5434,2.1516 -16.122,2.1516 -3.9336,0 -7.7659,-0.3872 -11.491,-1.1026 7.7839,24.2932 30.3546,41.9707 57.1153,42.4654 -20.9258,16.4021 -47.2871,26.1706 -75.9371,26.1706 -4.929,0 -9.7984,-0.2803 -14.5843,-0.8463 27.0587,17.3438 59.1893,27.464 93.7219,27.464" />
        <path
           d="m 1570.0896,1124.1086 c 112.4604,0 173.9563,-93.1677 173.9563,-173.9563 0,-2.64628 -0.054,-5.28062 -0.1726,-7.90305 11.938,-8.63016 22.3144,-19.39999 30.4976,-31.65984 -10.9546,4.86937 -22.7436,8.14741 -35.1107,9.62551 12.6234,-7.56929 22.3144,-19.54304 26.8858,-33.81739 -11.8128,7.00307 -24.8952,12.09297 -38.8238,14.84055 -11.1573,-11.88436 -27.0408,-19.31655 -44.6289,-19.31655 -33.7638,0 -61.1443,27.38052 -61.1443,61.13233 0,4.79784 0.5364,9.46458 1.5853,13.94057 -50.8154,-2.55686 -95.8735,-26.88582 -126.0254,-63.87991 -5.2508,9.03545 -8.2785,19.53111 -8.2785,30.73006 0,21.21186 10.7936,39.93837 27.2076,50.89296 -10.0308,-0.30992 -19.4536,-3.06348 -27.6904,-7.64676 -0.01,0.25652 -0.01,0.50661 -0.01,0.78077 0,29.60957 21.0748,54.33195 49.0513,59.93435 -5.1376,1.4006 -10.5434,2.1516 -16.122,2.1516 -3.9336,0 -7.7659,-0.3872 -11.491,-1.1026 7.7839,24.2932 30.3546,41.9707 57.1153,42.4654 -20.9258,16.4021 -47.2871,26.1706 -75.9371,26.1706 -4.929,0 -9.7984,-0.2803 -14.5843,-0.8463 27.0587,17.3438 59.1893,27.464 93.7219,27.464"
           style="fill:#ffffff;fill-opacity:1;fill-rule:nonzero;stroke:none"
           id="path5107"
           inkscape:connector-curvature="0" />
        <path
           inkscape:connector-curvature="0"
           id="path5109"
           style="fill:#ffffff;fill-opacity:1;fill-rule:nonzero;stroke:none"
           d="m 1882.1534,1124.1086 c 112.4604,0 173.9563,-93.1677 173.9563,-173.9563 0,-2.64628 -0.054,-5.28062 -0.1726,-7.90305 11.938,-8.63016 22.3144,-19.39999 30.4976,-31.65984 -10.9546,4.86937 -22.7436,8.14741 -35.1107,9.62551 12.6234,-7.56929 22.3144,-19.54304 26.8858,-33.81739 -11.8128,7.00307 -24.8952,12.09297 -38.8238,14.84055 -11.1573,-11.88436 -27.0408,-19.31655 -44.6289,-19.31655 -33.7638,0 -61.1443,27.38052 -61.1443,61.13233 0,4.79784 0.5364,9.46458 1.5853,13.94057 -50.8154,-2.55686 -95.8735,-26.88582 -126.0254,-63.87991 -5.2508,9.03545 -8.2785,19.53111 -8.2785,30.73006 0,21.21186 10.7936,39.93837 27.2076,50.89296 -10.0308,-0.30992 -19.4536,-3.06348 -27.6904,-7.64676 -0.01,0.25652 -0.01,0.50661 -0.01,0.78077 0,29.60957 21.0748,54.33195 49.0513,59.93435 -5.1376,1.4006 -10.5434,2.1516 -16.122,2.1516 -3.9336,0 -7.7659,-0.3872 -11.491,-1.1026 7.7839,24.2932 30.3546,41.9707 57.1153,42.4654 -20.9258,16.4021 -47.2871,26.1706 -75.9371,26.1706 -4.929,0 -9.7984,-0.2803 -14.5843,-0.8463 27.0587,17.3438 59.1893,27.464 93.7219,27.464" />
        <path
           d="m 633.89823,1436.1724 c 112.46038,0 173.95627,-93.1677 173.95627,-173.9563 0,-2.6463 -0.0539,-5.2807 -0.1726,-7.9031 11.93799,-8.6301 22.31446,-19.4 30.49762,-31.6598 -10.95459,4.8693 -22.74358,8.1474 -35.11071,9.6255 12.62341,-7.5693 22.31446,-19.5431 26.88583,-33.8174 -11.81284,7.0031 -24.89517,12.093 -38.82383,14.8405 -11.15723,-11.8843 -27.04079,-19.3165 -44.62892,-19.3165 -33.76374,0 -61.14426,27.3805 -61.14426,61.1323 0,4.7979 0.5364,9.4646 1.58538,13.9406 -50.81546,-2.5569 -95.87353,-26.8858 -126.02546,-63.8799 -5.25082,9.0354 -8.27852,19.5311 -8.27852,30.73 0,21.2119 10.79366,39.9384 27.20766,50.893 -10.03077,-0.3099 -19.45363,-3.0635 -27.69044,-7.6468 -0.009,0.2566 -0.009,0.5067 -0.009,0.7808 0,29.6096 21.07478,54.332 49.0513,59.9344 -5.13757,1.4006 -10.54335,2.1516 -16.12196,2.1516 -3.93364,0 -7.76596,-0.3872 -11.49099,-1.1026 7.78383,24.2932 30.35457,41.9707 57.11525,42.4654 -20.92578,16.4021 -47.28712,26.1706 -75.93712,26.1706 -4.92898,0 -9.79834,-0.2803 -14.58427,-0.8463 27.05868,17.3438 59.18936,27.464 93.72193,27.464"
           style="fill:#ffffff;fill-opacity:1;fill-rule:nonzero;stroke:none"
           id="path5111"
           inkscape:connector-curvature="0" />
        <path
           inkscape:connector-curvature="0"
           id="path5113"
           style="fill:#ffffff;fill-opacity:1;fill-rule:nonzero;stroke:none"
           d="m 945.96199,1436.1724 c 112.46041,0 173.95631,-93.1677 173.95631,-173.9563 0,-2.6463 -0.054,-5.2807 -0.1726,-7.9031 11.938,-8.6301 22.3144,-19.4 30.4976,-31.6598 -10.9546,4.8693 -22.7436,8.1474 -35.1107,9.6255 12.6234,-7.5693 22.3144,-19.5431 26.8858,-33.8174 -11.8128,7.0031 -24.8952,12.093 -38.8238,14.8405 -11.1573,-11.8843 -27.0408,-19.3165 -44.6289,-19.3165 -33.7638,0 -61.14431,27.3805 -61.14431,61.1323 0,4.7979 0.5364,9.4646 1.58538,13.9406 -50.81546,-2.5569 -95.87353,-26.8858 -126.02546,-63.8799 -5.25082,9.0354 -8.27852,19.5311 -8.27852,30.73 0,21.2119 10.79366,39.9384 27.20766,50.893 -10.03077,-0.3099 -19.45363,-3.0635 -27.69044,-7.6468 -0.009,0.2566 -0.009,0.5067 -0.009,0.7808 0,29.6096 21.07478,54.332 49.0513,59.9344 -5.13757,1.4006 -10.54335,2.1516 -16.12196,2.1516 -3.93364,0 -7.76596,-0.3872 -11.49099,-1.1026 7.78383,24.2932 30.35457,41.9707 57.11525,42.4654 -20.92578,16.4021 -47.28712,26.1706 -75.93712,26.1706 -4.92898,0 -9.79834,-0.2803 -14.58427,-0.8463 27.05868,17.3438 59.18936,27.464 93.72193,27.464" />
        <path
           d="m 1258.0258,1436.1724 c 112.4604,0 173.9563,-93.1677 173.9563,-173.9563 0,-2.6463 -0.054,-5.2807 -0.1726,-7.9031 11.938,-8.6301 22.3144,-19.4 30.4976,-31.6598 -10.9546,4.8693 -22.7436,8.1474 -35.1107,9.6255 12.6234,-7.5693 22.3144,-19.5431 26.8858,-33.8174 -11.8128,7.0031 -24.8952,12.093 -38.8238,14.8405 -11.1573,-11.8843 -27.0408,-19.3165 -44.6289,-19.3165 -33.7638,0 -61.1443,27.3805 -61.1443,61.1323 0,4.7979 0.5364,9.4646 1.5853,13.9406 -50.8154,-2.5569 -95.8735,-26.8858 -126.0254,-63.8799 -5.2508,9.0354 -8.2785,19.5311 -8.2785,30.73 0,21.2119 10.7936,39.9384 27.2076,50.893 -10.0308,-0.3099 -19.4536,-3.0635 -27.6904,-7.6468 -0.01,0.2566 -0.01,0.5067 -0.01,0.7808 0,29.6096 21.0748,54.332 49.0513,59.9344 -5.1376,1.4006 -10.5434,2.1516 -16.122,2.1516 -3.9336,0 -7.7659,-0.3872 -11.491,-1.1026 7.7839,24.2932 30.3546,41.9707 57.1153,42.4654 -20.9258,16.4021 -47.2871,26.1706 -75.9371,26.1706 -4.929,0 -9.7984,-0.2803 -14.5843,-0.8463 27.0587,17.3438 59.1893,27.464 93.7219,27.464"
           style="fill:#ffffff;fill-opacity:1;fill-rule:nonzero;stroke:none"
           id="path5115"
           inkscape:connector-curvature="0" />
        <path
           inkscape:connector-curvature="0"
           id="path5117"
           style="fill:#ffffff;fill-opacity:1;fill-rule:nonzero;stroke:none"
           d="m 1570.0896,1436.1724 c 112.4604,0 173.9563,-93.1677 173.9563,-173.9563 0,-2.6463 -0.054,-5.2807 -0.1726,-7.9031 11.938,-8.6301 22.3144,-19.4 30.4976,-31.6598 -10.9546,4.8693 -22.7436,8.1474 -35.1107,9.6255 12.6234,-7.5693 22.3144,-19.5431 26.8858,-33.8174 -11.8128,7.0031 -24.8952,12.093 -38.8238,14.8405 -11.1573,-11.8843 -27.0408,-19.3165 -44.6289,-19.3165 -33.7638,0 -61.1443,27.3805 -61.1443,61.1323 0,4.7979 0.5364,9.4646 1.5853,13.9406 -50.8154,-2.5569 -95.8735,-26.8858 -126.0254,-63.8799 -5.2508,9.0354 -8.2785,19.5311 -8.2785,30.73 0,21.2119 10.7936,39.9384 27.2076,50.893 -10.0308,-0.3099 -19.4536,-3.0635 -27.6904,-7.6468 -0.01,0.2566 -0.01,0.5067 -0.01,0.7808 0,29.6096 21.0748,54.332 49.0513,59.9344 -5.1376,1.4006 -10.5434,2.1516 -16.122,2.1516 -3.9336,0 -7.7659,-0.3872 -11.491,-1.1026 7.7839,24.2932 30.3546,41.9707 57.1153,42.4654 -20.9258,16.4021 -47.2871,26.1706 -75.9371,26.1706 -4.929,0 -9.7984,-0.2803 -14.5843,-0.8463 27.0587,17.3438 59.1893,27.464 93.7219,27.464" />
        <path
           d="m 1882.1534,1436.1724 c 112.4604,0 173.9563,-93.1677 173.9563,-173.9563 0,-2.6463 -0.054,-5.2807 -0.1726,-7.9031 11.938,-8.6301 22.3144,-19.4 30.4976,-31.6598 -10.9546,4.8693 -22.7436,8.1474 -35.1107,9.6255 12.6234,-7.5693 22.3144,-19.5431 26.8858,-33.8174 -11.8128,7.0031 -24.8952,12.093 -38.8238,14.8405 -11.1573,-11.8843 -27.0408,-19.3165 -44.6289,-19.3165 -33.7638,0 -61.1443,27.3805 -61.1443,61.1323 0,4.7979 0.5364,9.4646 1.5853,13.9406 -50.8154,-2.5569 -95.8735,-26.8858 -126.0254,-63.8799 -5.2508,9.0354 -8.2785,19.5311 -8.2785,30.73 0,21.2119 10.7936,39.9384 27.2076,50.893 -10.0308,-0.3099 -19.4536,-3.0635 -27.6904,-7.6468 -0.01,0.2566 -0.01,0.5067 -0.01,0.7808 0,29.6096 21.0748,54.332 49.0513,59.9344 -5.1376,1.4006 -10.5434,2.1516 -16.122,2.1516 -3.9336,0 -7.7659,-0.3872 -11.491,-1.1026 7.7839,24.2932 30.3546,41.9707 57.1153,42.4654 -20.9258,16.4021 -47.2871,26.1706 -75.9371,26.1706 -4.929,0 -9.7984,-0.2803 -14.5843,-0.8463 27.0587,17.3438 59.1893,27.464 93.7219,27.464"
           style="fill:#ffffff;fill-opacity:1;fill-rule:nonzero;stroke:none"
           id="path5119"
           inkscape:connector-curvature="0" />
      </g>
    </g>
    <g
       id="g5610"
       transform="translate(0.13229167,-0.66145833)">
      <g
         transform="matrix(0.06761842,0.14579918,-0.14579918,0.06761842,131.25015,32.971166)"
         id="g9164">
        <path
           sodipodi:nodetypes="sssss"
           inkscape:connector-curvature="0"
           id="path8381"
           d="m 252.961,388.08844 c 0,7.73888 -6.59412,17.83099 -14.33301,17.83099 -7.73888,0 -13.69196,-10.09211 -13.69196,-17.83099 0,-7.73889 6.00413,-30.18074 13.74302,-30.18074 7.73888,0 14.28195,22.44185 14.28195,30.18074 z"
           style="fill:#ffffff;fill-opacity:1;stroke:none;stroke-width:2.26486397;stroke-linecap:butt;stroke-linejoin:miter;stroke-miterlimit:4;stroke-dasharray:none;stroke-dashoffset:0;stroke-opacity:1" />
        <path
           style="opacity:1;fill:#ffffff;fill-opacity:1;stroke:#ffffff;stroke-width:0.29866338;stroke-linecap:butt;stroke-linejoin:miter;stroke-miterlimit:0;stroke-dasharray:none;stroke-dashoffset:0;stroke-opacity:1"
           d="m 233.97716,404.67987 c 0,0 3.28781,1.28813 4.42982,1.3009 2.19747,0.0246 4.91142,-1.48684 4.91142,-1.48684 0.1082,-0.0252 0.0454,0.21308 0.0402,0.34475 0,0 -2.17347,23.01176 -2.35679,27.70204 -0.74997,3.11538 -2.40902,4.31346 -2.74641,4.12178 -0.22862,-0.12988 -1.8948,0.79838 -2.18559,-4.23338 -0.29079,-5.03177 -2.09881,-27.84272 -2.09881,-27.84272 -0.008,-0.13155 -0.04,-0.30611 -0.0274,-0.19674 z"
           id="rect8385"
           inkscape:connector-curvature="0"
           sodipodi:nodetypes="cssscszssc" />
        <path
           style="fill:none;stroke:#ffffff;stroke-width:1px;stroke-linecap:round;stroke-linejoin:miter;stroke-opacity:1"
           d="m 238.21429,434.50504 c -0.20374,2.93182 0.26651,5.75288 0.89285,8.57143 0.68176,3.0679 2.42181,5.85901 3.03572,8.92857 2.75717,13.78588 -4.1719,27.59616 -6.07143,40.89286 C 234.16465,506.24535 240,511.78549 240,522.54075"
           id="path8388"
           inkscape:connector-curvature="0" />
        <path
           style="fill:none;stroke:#ffffff;stroke-width:1.00176668;stroke-linecap:butt;stroke-linejoin:miter;stroke-miterlimit:4;stroke-dasharray:none;stroke-opacity:1"
           d="m 238.14346,434.78017 c 1.39318,-9.54297 0.25254,-19.40823 0.25254,-29.04189"
           id="path8390"
           inkscape:connector-curvature="0" />
      </g>
      <circle
         r="16.810038"
         cy="102.24069"
         cx="85.499527"
         id="path5232"
         style="opacity:1;fill:none;fill-opacity:1;stroke:#ffffff;stroke-width:0.79097432;stroke-miterlimit:0;stroke-dasharray:none;stroke-dashoffset:0;stroke-opacity:1" />
      <text
         id="text955-7"
         y="108.50917"
         x="87.015686"
         style="font-style:normal;font-variant:normal;font-weight:normal;font-stretch:normal;font-size:10.58333302px;line-height:1.25;font-family:Consolas;-inkscape-font-specification:Consolas;letter-spacing:0px;word-spacing:0px;fill:#000000;fill-opacity:1;stroke:none;stroke-width:0.26458332"
         xml:space="preserve"><tspan
           id="tspan5315"
           style="font-style:normal;font-variant:normal;font-weight:normal;font-stretch:normal;font-size:1.41111112px;line-height:0.25;font-family:Consolas;-inkscape-font-specification:Consolas;text-align:center;text-anchor:middle;fill:#ffffff;fill-opacity:1;stroke-width:0.26458332"
           y="108.50917"
           x="87.015686"
           sodipodi:role="line">W tej skali HBV jest 10 x mniejszy</tspan></text>
      <text
         id="text955-7-5"
         y="111.28905"
         x="86.92778"
         style="font-style:normal;font-variant:normal;font-weight:normal;font-stretch:normal;font-size:10.58333302px;line-height:1.25;font-family:Consolas;-inkscape-font-specification:Consolas;letter-spacing:0px;word-spacing:0px;fill:#000000;fill-opacity:1;stroke:none;stroke-width:0.26458332"
         xml:space="preserve"><tspan
           id="tspan5479"
           style="font-style:normal;font-variant:normal;font-weight:normal;font-stretch:normal;font-size:1.41111112px;line-height:0%;font-family:Consolas;-inkscape-font-specification:Consolas;text-align:center;text-anchor:middle;fill:#ffffff;fill-opacity:1;stroke-width:0.26458332"
           y="111.28905"
           x="86.92778"
           sodipodi:role="line"> od kropki nad i</tspan></text>
      <circle
         r="0.014986165"
         cy="109.59847"
         cx="86.82489"
         id="path5483"
         style="opacity:1;fill:#ffffff;fill-opacity:1;stroke:none;stroke-width:0.54799998;stroke-miterlimit:0;stroke-dasharray:none;stroke-dashoffset:0;stroke-opacity:1" />
    </g>
    <text
       xml:space="preserve"
       style="font-style:normal;font-variant:normal;font-weight:normal;font-stretch:normal;font-size:10.58333302px;line-height:0.25;font-family:Consolas;-inkscape-font-specification:Consolas;letter-spacing:0px;word-spacing:0px;fill:#000000;fill-opacity:1;stroke:none;stroke-width:0.26458332"
       x="49.35564"
       y="133.83528"
       id="text4618-28"><tspan
         sodipodi:role="line"
         x="49.35564"
         y="133.83528"
         style="font-style:normal;font-variant:normal;font-weight:bold;font-stretch:normal;font-size:6.3499999px;line-height:1.25;font-family:Consolas;-inkscape-font-specification:'Consolas Bold';text-align:center;text-anchor:middle;fill:#ffffff;fill-opacity:1;stroke-width:0.26458332"
         id="tspan4632-25">&lt;wstaw tutaj</tspan><tspan
         sodipodi:role="line"
         x="49.35564"
         y="141.77278"
         style="font-style:normal;font-variant:normal;font-weight:bold;font-stretch:normal;font-size:6.3499999px;line-height:1.25;font-family:Consolas;-inkscape-font-specification:'Consolas Bold';text-align:center;text-anchor:middle;fill:#ffffff;fill-opacity:1;stroke-width:0.26458332"
         id="tspan5692">schemat wirusa hepatitis B&gt;</tspan></text>
    <text
       xml:space="preserve"
       style="font-style:normal;font-variant:normal;font-weight:normal;font-stretch:normal;font-size:10.58333302px;line-height:0.25;font-family:Consolas;-inkscape-font-specification:Consolas;letter-spacing:0px;word-spacing:0px;fill:#000000;fill-opacity:1;stroke:none;stroke-width:0.26458332"
       x="57.37833"
       y="67.473686"
       id="text4618-3-2"
       transform="rotate(-21.140852)"><tspan
         sodipodi:role="line"
         x="57.37833"
         y="67.473686"
         style="font-style:normal;font-variant:normal;font-weight:bold;font-stretch:normal;font-size:2.11666656px;line-height:0.25;font-family:Consolas;-inkscape-font-specification:'Consolas Bold';text-align:center;text-anchor:middle;fill:#ffffff;fill-opacity:1;stroke-width:0.26458332"
         id="tspan5686">czy wróblu wolno</tspan><tspan
         sodipodi:role="line"
         x="57.37833"
         y="71.115845"
         style="font-style:normal;font-variant:normal;font-weight:bold;font-stretch:normal;font-size:2.11666656px;line-height:0.25;font-family:Consolas;-inkscape-font-specification:'Consolas Bold';text-align:center;text-anchor:middle;fill:#ffffff;fill-opacity:1;stroke-width:0.26458332"
         id="tspan5690">szczepionkę?</tspan></text>
  </g>
</svg>
